<svg width="40" height="40" viewBox="0 0 40 40" fill="none" xmlns="http://www.w3.org/2000/svg">
<path fill-rule="evenodd" clip-rule="evenodd" d="M35.1481 7.31545L39.7161 18.7157C39.9095 19.1976 40.0059 19.7129 39.9997 20.2322C39.9939 20.7514 39.8855 21.2643 39.6808 21.7416L34.8469 33.0356C34.6429 33.5124 34.347 33.9443 33.976 34.3067C33.605 34.6691 33.1663 34.9548 32.6849 35.1477L21.2808 39.7165C20.7993 39.9096 20.2845 40.0056 19.7658 39.9998C19.2471 39.9936 18.7346 39.8856 18.2577 39.6812L6.96353 34.8465C6.00079 34.4342 5.2411 33.6566 4.85137 32.6845L0.283492 21.2805C0.0905159 20.7992 -0.00575807 20.2845 0.000266218 19.766C0.0062905 19.2474 0.114484 18.7351 0.318591 18.2584L5.15256 6.96342C5.56488 6.00074 6.34253 5.24108 7.31462 4.85134L18.7187 0.283477C19.2002 0.0904771 19.7151 -0.00575784 20.2338 0.000266305C20.7525 0.00629045 21.265 0.114456 21.7419 0.318586L33.036 5.15254C33.5129 5.35661 33.945 5.65264 34.3074 6.02376C34.6698 6.39492 34.9555 6.83382 35.1481 7.31545ZM28.5779 27.8239C29.4565 27.3719 30.415 26.8788 31.4663 26.3028C33.1987 25.3586 34.4589 23.726 34.7786 22.2329C35.1297 20.7251 34.5365 19.3577 33.3465 18.6075C30.6295 16.8671 29.5135 14.6984 27.8256 11.418C27.3737 10.5398 26.8808 9.58189 26.3052 8.53118C25.3655 6.7979 23.733 5.53581 22.2399 5.2189C20.732 4.86691 19.3646 5.46097 18.6143 6.65099C16.8743 9.36738 14.7062 10.4828 11.427 12.1699C10.5482 12.622 9.58954 13.1152 8.53793 13.6913C6.80463 14.6365 5.54342 16.269 5.22558 17.7621C4.8745 19.269 5.46764 20.6374 6.65769 21.3867C9.37471 23.127 10.4906 25.2957 12.1786 28.5761C12.6305 29.4543 13.1234 30.4123 13.699 31.4629C14.6386 33.1962 16.2712 34.4583 17.7643 34.7752C19.2722 35.1272 20.6396 34.5341 21.3898 33.344C23.13 30.6268 25.2983 29.5112 28.5779 27.8239Z" fill="url(#paint0_linear_39_4435)"/>
<path fill-rule="evenodd" clip-rule="evenodd" d="M35.1481 7.31545L39.7161 18.7157C39.9095 19.1976 40.0059 19.7129 39.9997 20.2322C39.9939 20.7514 39.8855 21.2643 39.6808 21.7416L34.8469 33.0356C34.6429 33.5124 34.347 33.9443 33.976 34.3067C33.605 34.6691 33.1663 34.9548 32.6849 35.1477L21.2808 39.7165C20.7993 39.9096 20.2845 40.0056 19.7658 39.9998C19.2471 39.9936 18.7346 39.8856 18.2577 39.6812L6.96353 34.8465C6.00079 34.4342 5.2411 33.6566 4.85137 32.6845L0.283492 21.2805C0.0905159 20.7992 -0.00575807 20.2845 0.000266218 19.766C0.0062905 19.2474 0.114484 18.7351 0.318591 18.2584L5.15256 6.96342C5.56488 6.00074 6.34253 5.24108 7.31462 4.85134L18.7187 0.283477C19.2002 0.0904771 19.7151 -0.00575784 20.2338 0.000266305C20.7525 0.00629045 21.265 0.114456 21.7419 0.318586L33.036 5.15254C33.5129 5.35661 33.945 5.65264 34.3074 6.02376C34.6698 6.39492 34.9555 6.83382 35.1481 7.31545ZM28.5779 27.8239C29.4565 27.3719 30.415 26.8788 31.4663 26.3028C33.1987 25.3586 34.4589 23.726 34.7786 22.2329C35.1297 20.7251 34.5365 19.3577 33.3465 18.6075C30.6295 16.8671 29.5135 14.6984 27.8256 11.418C27.3737 10.5398 26.8808 9.58189 26.3052 8.53118C25.3655 6.7979 23.733 5.53581 22.2399 5.2189C20.732 4.86691 19.3646 5.46097 18.6143 6.65099C16.8743 9.36738 14.7062 10.4828 11.427 12.1699C10.5482 12.622 9.58954 13.1152 8.53793 13.6913C6.80463 14.6365 5.54342 16.269 5.22558 17.7621C4.8745 19.269 5.46764 20.6374 6.65769 21.3867C9.37471 23.127 10.4906 25.2957 12.1786 28.5761C12.6305 29.4543 13.1234 30.4123 13.699 31.4629C14.6386 33.1962 16.2712 34.4583 17.7643 34.7752C19.2722 35.1272 20.6396 34.5341 21.3898 33.344C23.13 30.6268 25.2983 29.5112 28.5779 27.8239Z" fill="url(#paint1_linear_39_4435)" fill-opacity="0.5"/>
<path fill-rule="evenodd" clip-rule="evenodd" d="M35.1481 7.31545L39.7161 18.7157C39.9095 19.1976 40.0059 19.7129 39.9997 20.2322C39.9939 20.7514 39.8855 21.2643 39.6808 21.7416L34.8469 33.0356C34.6429 33.5124 34.347 33.9443 33.976 34.3067C33.605 34.6691 33.1663 34.9548 32.6849 35.1477L21.2808 39.7165C20.7993 39.9096 20.2845 40.0056 19.7658 39.9998C19.2471 39.9936 18.7346 39.8856 18.2577 39.6812L6.96353 34.8465C6.00079 34.4342 5.2411 33.6566 4.85137 32.6845L0.283492 21.2805C0.0905159 20.7992 -0.00575807 20.2845 0.000266218 19.766C0.0062905 19.2474 0.114484 18.7351 0.318591 18.2584L5.15256 6.96342C5.56488 6.00074 6.34253 5.24108 7.31462 4.85134L18.7187 0.283477C19.2002 0.0904771 19.7151 -0.00575784 20.2338 0.000266305C20.7525 0.00629045 21.265 0.114456 21.7419 0.318586L33.036 5.15254C33.5129 5.35661 33.945 5.65264 34.3074 6.02376C34.6698 6.39492 34.9555 6.83382 35.1481 7.31545ZM28.5779 27.8239C29.4565 27.3719 30.415 26.8788 31.4663 26.3028C33.1987 25.3586 34.4589 23.726 34.7786 22.2329C35.1297 20.7251 34.5365 19.3577 33.3465 18.6075C30.6295 16.8671 29.5135 14.6984 27.8256 11.418C27.3737 10.5398 26.8808 9.58189 26.3052 8.53118C25.3655 6.7979 23.733 5.53581 22.2399 5.2189C20.732 4.86691 19.3646 5.46097 18.6143 6.65099C16.8743 9.36738 14.7062 10.4828 11.427 12.1699C10.5482 12.622 9.58954 13.1152 8.53793 13.6913C6.80463 14.6365 5.54342 16.269 5.22558 17.7621C4.8745 19.269 5.46764 20.6374 6.65769 21.3867C9.37471 23.127 10.4906 25.2957 12.1786 28.5761C12.6305 29.4543 13.1234 30.4123 13.699 31.4629C14.6386 33.1962 16.2712 34.4583 17.7643 34.7752C19.2722 35.1272 20.6396 34.5341 21.3898 33.344C23.13 30.6268 25.2983 29.5112 28.5779 27.8239Z" fill="url(#paint2_linear_39_4435)" fill-opacity="0.15"/>
<path fill-rule="evenodd" clip-rule="evenodd" d="M35.1481 7.31545L39.7161 18.7157C39.9095 19.1976 40.0059 19.7129 39.9997 20.2322C39.9939 20.7514 39.8855 21.2643 39.6808 21.7416L34.8469 33.0356C34.6429 33.5124 34.347 33.9443 33.976 34.3067C33.605 34.6691 33.1663 34.9548 32.6849 35.1477L21.2808 39.7165C20.7993 39.9096 20.2845 40.0056 19.7658 39.9998C19.2471 39.9936 18.7346 39.8856 18.2577 39.6812L6.96353 34.8465C6.00079 34.4342 5.2411 33.6566 4.85137 32.6845L0.283492 21.2805C0.0905159 20.7992 -0.00575807 20.2845 0.000266218 19.766C0.0062905 19.2474 0.114484 18.7351 0.318591 18.2584L5.15256 6.96342C5.56488 6.00074 6.34253 5.24108 7.31462 4.85134L18.7187 0.283477C19.2002 0.0904771 19.7151 -0.00575784 20.2338 0.000266305C20.7525 0.00629045 21.265 0.114456 21.7419 0.318586L33.036 5.15254C33.5129 5.35661 33.945 5.65264 34.3074 6.02376C34.6698 6.39492 34.9555 6.83382 35.1481 7.31545ZM28.5779 27.8239C29.4565 27.3719 30.415 26.8788 31.4663 26.3028C33.1987 25.3586 34.4589 23.726 34.7786 22.2329C35.1297 20.7251 34.5365 19.3577 33.3465 18.6075C30.6295 16.8671 29.5135 14.6984 27.8256 11.418C27.3737 10.5398 26.8808 9.58189 26.3052 8.53118C25.3655 6.7979 23.733 5.53581 22.2399 5.2189C20.732 4.86691 19.3646 5.46097 18.6143 6.65099C16.8743 9.36738 14.7062 10.4828 11.427 12.1699C10.5482 12.622 9.58954 13.1152 8.53793 13.6913C6.80463 14.6365 5.54342 16.269 5.22558 17.7621C4.8745 19.269 5.46764 20.6374 6.65769 21.3867C9.37471 23.127 10.4906 25.2957 12.1786 28.5761C12.6305 29.4543 13.1234 30.4123 13.699 31.4629C14.6386 33.1962 16.2712 34.4583 17.7643 34.7752C19.2722 35.1272 20.6396 34.5341 21.3898 33.344C23.13 30.6268 25.2983 29.5112 28.5779 27.8239Z" fill="url(#paint3_radial_39_4435)"/>
<path fill-rule="evenodd" clip-rule="evenodd" d="M35.1481 7.31545L39.7161 18.7157C39.9095 19.1976 40.0059 19.7129 39.9997 20.2322C39.9939 20.7514 39.8855 21.2643 39.6808 21.7416L34.8469 33.0356C34.6429 33.5124 34.347 33.9443 33.976 34.3067C33.605 34.6691 33.1663 34.9548 32.6849 35.1477L21.2808 39.7165C20.7993 39.9096 20.2845 40.0056 19.7658 39.9998C19.2471 39.9936 18.7346 39.8856 18.2577 39.6812L6.96353 34.8465C6.00079 34.4342 5.2411 33.6566 4.85137 32.6845L0.283492 21.2805C0.0905159 20.7992 -0.00575807 20.2845 0.000266218 19.766C0.0062905 19.2474 0.114484 18.7351 0.318591 18.2584L5.15256 6.96342C5.56488 6.00074 6.34253 5.24108 7.31462 4.85134L18.7187 0.283477C19.2002 0.0904771 19.7151 -0.00575784 20.2338 0.000266305C20.7525 0.00629045 21.265 0.114456 21.7419 0.318586L33.036 5.15254C33.5129 5.35661 33.945 5.65264 34.3074 6.02376C34.6698 6.39492 34.9555 6.83382 35.1481 7.31545ZM28.5779 27.8239C29.4565 27.3719 30.415 26.8788 31.4663 26.3028C33.1987 25.3586 34.4589 23.726 34.7786 22.2329C35.1297 20.7251 34.5365 19.3577 33.3465 18.6075C30.6295 16.8671 29.5135 14.6984 27.8256 11.418C27.3737 10.5398 26.8808 9.58189 26.3052 8.53118C25.3655 6.7979 23.733 5.53581 22.2399 5.2189C20.732 4.86691 19.3646 5.46097 18.6143 6.65099C16.8743 9.36738 14.7062 10.4828 11.427 12.1699C10.5482 12.622 9.58954 13.1152 8.53793 13.6913C6.80463 14.6365 5.54342 16.269 5.22558 17.7621C4.8745 19.269 5.46764 20.6374 6.65769 21.3867C9.37471 23.127 10.4906 25.2957 12.1786 28.5761C12.6305 29.4543 13.1234 30.4123 13.699 31.4629C14.6386 33.1962 16.2712 34.4583 17.7643 34.7752C19.2722 35.1272 20.6396 34.5341 21.3898 33.344C23.13 30.6268 25.2983 29.5112 28.5779 27.8239Z" fill="url(#paint4_radial_39_4435)"/>
<defs>
<linearGradient id="paint0_linear_39_4435" x1="23.0903" y1="2.13417e-07" x2="14.1813" y2="53.9991" gradientUnits="userSpaceOnUse">
<stop stop-color="#0062F2"/>
<stop offset="0.249582" stop-color="#C6DDFF"/>
<stop offset="0.59375" stop-color="#C6DDFF"/>
<stop offset="1" stop-color="#0062F2"/>
</linearGradient>
<linearGradient id="paint1_linear_39_4435" x1="-19.2722" y1="21.8178" x2="55.2714" y2="39.999" gradientUnits="userSpaceOnUse">
<stop offset="0.279297" stop-color="#0062F2"/>
<stop offset="0.474855" stop-color="#AAC8F3"/>
<stop offset="1" stop-color="#0062F2"/>
</linearGradient>
<linearGradient id="paint2_linear_39_4435" x1="27.272" y1="5.91375e-07" x2="24.1812" y2="17.2725" gradientUnits="userSpaceOnUse">
<stop/>
<stop offset="1" stop-opacity="0"/>
</linearGradient>
<radialGradient id="paint3_radial_39_4435" cx="0" cy="0" r="1" gradientUnits="userSpaceOnUse" gradientTransform="translate(19.9995 21.8178) rotate(117.387) scale(16.9956 16.9956)">
<stop stop-color="#C5D9F6"/>
<stop offset="1" stop-color="#C4DAF3" stop-opacity="0"/>
</radialGradient>
<radialGradient id="paint4_radial_39_4435" cx="0" cy="0" r="1" gradientUnits="userSpaceOnUse" gradientTransform="translate(31.6356 21.4542) rotate(126.027) scale(19.7836 19.7837)">
<stop stop-color="#DFFF00"/>
<stop offset="1" stop-color="#F1FBCE" stop-opacity="0"/>
</radialGradient>
</defs>
</svg>
