<svg width="255" height="72" viewBox="0 0 255 72" fill="none" xmlns="http://www.w3.org/2000/svg">
<g clip-path="url(#clip0_1_4427)">
<path d="M254.5 64.7827C254.5 65.7311 254.311 66.6702 253.943 67.5464C253.575 68.4225 253.037 69.2185 252.357 69.8888C251.678 70.5591 250.872 71.0905 249.984 71.4528C249.097 71.815 248.146 72.001 247.186 72L7.82381 72C5.88377 72.002 4.02235 71.2428 2.64893 69.8893C1.2755 68.5359 0.502528 66.699 0.5 64.7827L0.5 7.22676C0.502527 5.30956 1.27519 3.47172 2.64835 2.11676C4.0215 0.761806 5.88289 0.000497645 7.82381 0L247.184 0C248.145 -3.22779e-08 249.096 0.186939 249.983 0.550141C250.871 0.913343 251.677 1.44569 252.356 2.11678C253.036 2.78787 253.574 3.58456 253.942 4.46134C254.309 5.33812 254.498 6.27782 254.498 7.22676L254.5 64.7827Z" fill="black"/>
<path d="M54.0481 33.5431C53.996 27.8212 58.7911 25.0374 59.0103 24.9078C56.2947 20.9968 52.0855 20.4624 50.6063 20.4198C47.0711 20.0523 43.642 22.5093 41.8411 22.5093C40.0043 22.5093 37.2311 20.4553 34.2423 20.5156C30.3962 20.5742 26.798 22.7739 24.8246 26.1896C20.7521 33.1543 23.7894 43.3892 27.6913 49.0188C29.6431 51.7759 31.9238 54.8543 34.9091 54.746C37.8296 54.6271 38.9206 52.9068 42.445 52.9068C45.9371 52.9068 46.9615 54.746 50.0061 54.6768C53.1405 54.6271 55.1139 51.9072 56.9974 49.1253C59.253 45.9652 60.1588 42.853 60.1947 42.6932C60.121 42.6684 54.1074 40.4013 54.0481 33.5431ZM48.2969 16.7164C49.8677 14.776 50.9424 12.136 50.6441 9.45703C48.3706 9.55645 45.5273 11.0105 43.89 12.9083C42.4414 14.5807 41.1474 17.3218 41.4817 19.8996C44.0356 20.0878 46.6578 18.6267 48.2969 16.7164ZM96.3143 54.3501H92.2327L89.9969 47.4103H82.2255L80.0958 54.3501H76.1221L83.8215 30.7239H88.5771L96.3143 54.3501ZM89.3229 44.4987L87.301 38.3294C87.0871 37.6992 86.6863 36.215 86.095 33.8786H86.0232C85.6646 35.3672 85.286 36.8509 84.8873 38.3294L82.9013 44.4987H89.3229ZM116.115 45.6225C116.115 48.5199 115.322 50.8101 113.737 52.4913C112.317 53.9879 110.554 54.7354 108.449 54.7354C106.178 54.7354 104.546 53.9294 103.552 52.3173H103.48V61.2917H99.6482V42.9222C99.6482 41.1007 99.5997 39.2313 99.5062 37.3139H102.876L103.09 40.0142H103.162C104.44 37.9797 106.379 36.9642 108.981 36.9642C111.016 36.9642 112.714 37.7578 114.073 39.3467C115.435 40.9374 116.115 43.0288 116.115 45.6225ZM112.211 45.761C112.211 44.1028 111.834 42.7358 111.075 41.66C110.247 40.538 109.134 39.9769 107.739 39.9769C106.794 39.9769 105.935 40.2894 105.168 40.9054C104.398 41.5268 103.895 42.3382 103.66 43.343C103.541 43.8117 103.482 44.1952 103.482 44.497V47.3375C103.482 48.5767 103.866 49.6224 104.636 50.4763C105.405 51.3303 106.404 51.7563 107.633 51.7563C109.077 51.7563 110.2 51.206 111.003 50.1088C111.808 49.0099 112.211 47.5612 112.211 45.761ZM135.951 45.6225C135.951 48.5199 135.158 50.8101 133.571 52.4913C132.153 53.9879 130.39 54.7354 128.286 54.7354C126.014 54.7354 124.382 53.9294 123.39 52.3173H123.318V61.2917H119.486V42.9222C119.486 41.1007 119.438 39.2313 119.344 37.3139H122.714L122.928 40.0142H123C124.276 37.9797 126.215 36.9642 128.82 36.9642C130.852 36.9642 132.551 37.7578 133.913 39.3467C135.27 40.9374 135.951 43.0288 135.951 45.6225ZM132.047 45.761C132.047 44.1028 131.668 42.7358 130.91 41.66C130.081 40.538 128.972 39.9769 127.576 39.9769C126.634 39.9767 125.722 40.3056 125.002 40.9054C124.233 41.5268 123.731 42.3382 123.496 43.343C123.379 43.8117 123.318 44.1952 123.318 44.497V47.3375C123.318 48.5767 123.703 49.6224 124.468 50.4763C125.238 51.3285 126.237 51.7563 127.47 51.7563C128.913 51.7563 130.036 51.206 130.84 50.1088C131.645 49.0099 132.047 47.5612 132.047 45.761ZM158.129 47.7245C158.129 49.7342 157.423 51.3693 156.005 52.6316C154.447 54.011 152.277 54.6999 149.49 54.6999C146.916 54.6999 144.853 54.2099 143.291 53.2281L144.179 50.0733C145.861 51.0782 147.707 51.5824 149.718 51.5824C151.161 51.5824 152.285 51.2592 153.092 50.6166C153.895 49.9739 154.296 49.1111 154.296 48.0352C154.296 47.0765 153.965 46.2688 153.302 45.6137C152.642 44.9586 151.54 44.3496 150.002 43.7868C145.814 42.2441 143.722 39.984 143.722 37.0121C143.722 35.0699 144.456 33.4774 145.924 32.2382C147.387 30.9973 149.339 30.3777 151.78 30.3777C153.956 30.3777 155.764 30.7523 157.207 31.4997L156.249 34.5852C154.901 33.8609 153.377 33.4987 151.672 33.4987C150.324 33.4987 149.271 33.8272 148.516 34.4805C148.21 34.748 147.966 35.0776 147.8 35.4468C147.635 35.816 147.552 36.2161 147.558 36.6198C147.558 37.5536 147.923 38.3259 148.656 38.933C149.294 39.4941 150.453 40.1012 152.135 40.7563C154.193 41.5748 155.705 42.5317 156.677 43.6288C157.646 44.7224 158.129 46.0912 158.129 47.7245ZM170.798 40.1545H166.575V48.4258C166.575 50.5296 167.319 51.5806 168.81 51.5806C169.495 51.5806 170.063 51.522 170.512 51.4048L170.618 54.2791C169.864 54.5578 168.87 54.6981 167.639 54.6981C166.125 54.6981 164.943 54.2418 164.089 53.3311C163.239 52.4185 162.811 50.8882 162.811 48.7383V40.1509H160.295V37.3104H162.811V34.1911L166.575 33.0691V37.3104H170.798V40.1545ZM189.854 45.6918C189.854 48.3104 189.096 50.4603 187.583 52.1416C185.996 53.8725 183.889 54.7354 181.264 54.7354C178.733 54.7354 176.718 53.9063 175.216 52.2481C173.713 50.5899 172.962 48.4968 172.962 45.9741C172.962 43.3341 173.735 41.1717 175.286 39.4905C176.833 37.8075 178.922 36.966 181.548 36.966C184.078 36.966 186.114 37.795 187.651 39.455C189.121 41.0652 189.854 43.1442 189.854 45.6918ZM185.879 45.8143C185.879 44.2431 185.539 42.8956 184.851 41.7718C184.048 40.4119 182.899 39.7337 181.411 39.7337C179.871 39.7337 178.701 40.4137 177.897 41.7718C177.209 42.8974 176.869 44.2662 176.869 45.8853C176.869 47.4565 177.209 48.8039 177.897 49.926C178.726 51.2859 179.883 51.9641 181.377 51.9641C182.84 51.9641 183.988 51.2717 184.817 49.8905C185.523 48.7454 185.879 47.3837 185.879 45.8143ZM202.31 40.6427C201.911 40.5716 201.507 40.5365 201.102 40.538C199.754 40.538 198.711 41.0404 197.978 42.047C197.34 42.9347 197.02 44.0567 197.02 45.4113V54.3501H193.19L193.226 42.679C193.226 40.7155 193.178 38.9277 193.082 37.3157H196.42L196.56 40.5752H196.666C197.07 39.455 197.709 38.5531 198.582 37.8767C199.382 37.2857 200.353 36.9656 201.352 36.9642C201.706 36.9642 202.026 36.989 202.31 37.0334V40.6427ZM219.446 45.026C219.456 45.6014 219.409 46.1764 219.306 46.7428H207.811C207.856 48.4258 208.411 49.7129 209.479 50.6006C210.447 51.3942 211.7 51.7918 213.239 51.7918C214.941 51.7918 216.493 51.5238 217.89 50.9858L218.49 53.6134C216.858 54.3164 214.932 54.6661 212.708 54.6661C210.034 54.6661 207.935 53.8885 206.407 52.3351C204.883 50.7817 204.119 48.6956 204.119 46.0788C204.119 43.5099 204.829 41.3706 206.251 39.6645C207.739 37.843 209.75 36.9322 212.281 36.9322C214.766 36.9322 216.648 37.843 217.926 39.6645C218.938 41.1114 219.446 42.9009 219.446 45.026ZM215.793 44.0443C215.818 42.9222 215.568 41.9529 215.048 41.1345C214.385 40.0817 213.366 39.5562 211.995 39.5562C210.742 39.5562 209.723 40.0693 208.945 41.099C208.307 41.9174 207.928 42.8992 207.811 44.0425L215.793 44.0443ZM88.0559 16.1891C88.0559 18.2787 87.4214 19.8517 86.1544 20.908C84.9807 21.8827 83.3129 22.3709 81.1526 22.3709C80.0814 22.3709 79.1648 22.3247 78.3974 22.2324V10.8152C79.3985 10.6554 80.4768 10.5737 81.6414 10.5737C83.6993 10.5737 85.2503 11.0158 86.2963 11.8999C87.4682 12.8994 88.0559 14.3286 88.0559 16.1891ZM86.0699 16.2406C86.0699 14.886 85.7068 13.8475 84.9807 13.1231C84.2547 12.4005 83.1943 12.0384 81.7978 12.0384C81.2047 12.0384 80.6997 12.0774 80.2809 12.1591V20.8388C80.5128 20.8743 80.9369 20.8902 81.5534 20.8902C82.9948 20.8902 84.1073 20.4943 84.8909 19.7025C85.6745 18.9107 86.0699 17.7568 86.0699 16.2406ZM98.586 18.0142C98.586 19.3013 98.214 20.3559 97.4699 21.1832C96.6899 22.0336 95.6565 22.4579 94.366 22.4579C93.1223 22.4579 92.132 22.0513 91.3934 21.2347C90.6565 20.4198 90.2881 19.3918 90.2881 18.1527C90.2881 16.8567 90.6673 15.7932 91.4293 14.9677C92.1914 14.1422 93.2158 13.7285 94.5062 13.7285C95.7499 13.7285 96.7492 14.1351 97.5059 14.9499C98.2248 15.7417 98.586 16.7643 98.586 18.0142ZM96.6324 18.0745C96.6324 17.3023 96.4634 16.6401 96.1274 16.0879C95.732 15.4204 95.1694 15.0866 94.4379 15.0866C93.6813 15.0866 93.1062 15.4204 92.7108 16.0879C92.3729 16.6401 92.2057 17.3129 92.2057 18.1083C92.2057 18.8805 92.3747 19.5428 92.7108 20.0949C93.1187 20.7624 93.6867 21.0962 94.42 21.0962C95.1389 21.0962 95.7032 20.7571 96.1094 20.0771C96.458 19.5143 96.6324 18.8468 96.6324 18.0745ZM112.705 13.8989L110.054 22.2679H108.329L107.231 18.6338C106.957 17.7446 106.73 16.8421 106.55 15.9299H106.516C106.353 16.8459 106.125 17.7494 105.834 18.6338L104.668 22.2679H102.923L100.43 13.8989H102.366L103.324 17.8775C103.555 18.8184 103.746 19.715 103.899 20.5636H103.933C104.073 19.8641 104.305 18.9729 104.632 17.8952L105.834 13.9007H107.369L108.521 17.81C108.8 18.7634 109.026 19.6812 109.201 20.5653H109.253C109.38 19.7043 109.573 18.7865 109.828 17.81L110.856 13.9007H112.705V13.8989ZM122.47 22.2679H120.586V17.4745C120.586 15.9974 120.018 15.2588 118.879 15.2588C118.62 15.2513 118.363 15.3023 118.127 15.4078C117.892 15.5134 117.683 15.6707 117.518 15.8678C117.173 16.2673 116.987 16.7772 116.995 17.3023V22.2661H115.112V16.2903C115.112 15.5553 115.088 14.7582 115.044 13.8954H116.699L116.787 15.2038H116.839C117.058 14.7973 117.385 14.4617 117.815 14.1936C118.325 13.8812 118.897 13.7232 119.522 13.7232C120.313 13.7232 120.971 13.9753 121.494 14.4813C122.144 15.1008 122.47 16.0258 122.47 17.2543V22.2679ZM127.664 22.2679H125.782V10.0589H127.664V22.2679ZM138.753 18.0142C138.753 19.3013 138.381 20.3559 137.637 21.1832C136.857 22.0336 135.822 22.4579 134.533 22.4579C133.288 22.4579 132.297 22.0513 131.56 21.2347C130.823 20.4198 130.455 19.3918 130.455 18.1527C130.455 16.8567 130.834 15.7932 131.596 14.9677C132.358 14.1422 133.383 13.7285 134.671 13.7285C135.917 13.7285 136.914 14.1351 137.673 14.9499C138.392 15.7417 138.753 16.7643 138.753 18.0142ZM136.798 18.0745C136.798 17.3023 136.629 16.6401 136.293 16.0879C135.899 15.4204 135.335 15.0866 134.605 15.0866C133.846 15.0866 133.271 15.4204 132.878 16.0879C132.54 16.6401 132.373 17.3129 132.373 18.1083C132.373 18.8805 132.542 19.5428 132.878 20.0949C133.286 20.7624 133.854 21.0962 134.587 21.0962C135.306 21.0962 135.868 20.7571 136.275 20.0771C136.625 19.5143 136.798 18.8468 136.798 18.0745ZM147.869 22.2679H146.177L146.037 21.3039H145.985C145.406 22.0726 144.581 22.4579 143.51 22.4579C142.711 22.4579 142.064 22.204 141.576 21.6998C141.358 21.4729 141.186 21.2055 141.073 20.913C140.959 20.6205 140.905 20.3087 140.913 19.9955C140.913 18.9729 141.345 18.1935 142.213 17.6538C143.079 17.1141 144.298 16.8496 145.867 16.862V16.7058C145.867 15.6033 145.281 15.0529 144.107 15.0529C143.271 15.0529 142.534 15.2606 141.898 15.6725L141.515 14.4511C142.303 13.97 143.275 13.7285 144.422 13.7285C146.636 13.7285 147.746 14.8825 147.746 17.1904V20.2724C147.746 21.1086 147.788 21.7744 147.869 22.2679ZM145.913 19.3918V18.1012C143.836 18.0657 142.797 18.6285 142.797 19.7877C142.797 20.2245 142.915 20.5511 143.158 20.7695C143.411 20.991 143.74 21.1079 144.078 21.0962C144.492 21.0962 144.878 20.9666 145.23 20.7092C145.444 20.561 145.618 20.3636 145.737 20.1341C145.856 19.9045 145.916 19.6497 145.913 19.3918ZM158.571 22.2679H156.9L156.812 20.924H156.76C156.226 21.9466 155.317 22.4579 154.039 22.4579C153.018 22.4579 152.168 22.062 151.494 21.2702C150.82 20.4784 150.484 19.4504 150.484 18.1882C150.484 16.8336 150.849 15.7364 151.582 14.8985C152.292 14.1173 153.162 13.7267 154.197 13.7267C155.335 13.7267 156.131 14.1049 156.584 14.8629H156.62V10.0589H158.505V20.0132C158.505 20.8281 158.526 21.5791 158.571 22.2679ZM156.62 18.7385V17.3431C156.637 17.0213 156.58 16.6997 156.453 16.4028C156.326 16.1059 156.132 15.8416 155.886 15.6299C155.539 15.3275 155.089 15.1647 154.626 15.1736C153.924 15.1736 153.374 15.4488 152.969 16.0009C152.569 16.5531 152.365 17.2579 152.365 18.1189C152.365 18.9462 152.558 19.6173 152.944 20.1339C153.352 20.6843 153.902 20.9595 154.59 20.9595C155.209 20.9595 155.703 20.7305 156.079 20.2706C156.442 19.8463 156.62 19.335 156.62 18.7385ZM174.68 18.0142C174.68 19.3013 174.308 20.3559 173.564 21.1832C172.784 22.0336 171.752 22.4579 170.46 22.4579C169.218 22.4579 168.228 22.0513 167.488 21.2347C166.751 20.4198 166.382 19.3918 166.382 18.1527C166.382 16.8567 166.761 15.7932 167.524 14.9677C168.286 14.1422 169.31 13.7285 170.602 13.7285C171.844 13.7285 172.845 14.1351 173.6 14.9499C174.319 15.7417 174.68 16.7643 174.68 18.0142ZM172.728 18.0745C172.728 17.3023 172.559 16.6401 172.223 16.0879C171.826 15.4204 171.265 15.0866 170.532 15.0866C169.777 15.0866 169.202 15.4204 168.805 16.0879C168.467 16.6401 168.3 17.3129 168.3 18.1083C168.3 18.8805 168.469 19.5428 168.805 20.0949C169.213 20.7624 169.781 21.0962 170.514 21.0962C171.233 21.0962 171.799 20.7571 172.205 20.0771C172.552 19.5143 172.728 18.8468 172.728 18.0745ZM184.808 22.2679H182.926V17.4745C182.926 15.9974 182.358 15.2588 181.217 15.2588C180.658 15.2588 180.207 15.4612 179.858 15.8678C179.509 16.2743 179.335 16.7537 179.335 17.3023V22.2661H177.45V16.2903C177.45 15.5553 177.428 14.7582 177.383 13.8954L179.037 13.8954L179.125 15.2038H179.177C179.408 14.7888 179.744 14.4406 180.153 14.1936C180.665 13.8812 181.235 13.7232 181.862 13.7232C182.651 13.7232 183.309 13.9753 183.832 14.4813C184.484 15.1008 184.808 16.0258 184.808 17.2543V22.2679ZM197.484 15.2926H195.41V19.3581C195.41 20.3914 195.778 20.908 196.508 20.908C196.846 20.908 197.126 20.8796 197.347 20.821L197.396 22.2324C197.024 22.3709 196.535 22.4401 195.933 22.4401C195.189 22.4401 194.61 22.2164 194.191 21.769C193.771 21.3216 193.562 20.5689 193.562 19.5126V15.2926H192.324V13.8989H193.562V12.365L195.408 11.8147V13.8972H197.482L197.484 15.2926ZM207.455 22.2679H205.57V17.51C205.57 16.0098 205.002 15.2588 203.864 15.2588C202.991 15.2588 202.394 15.6938 202.067 16.5637C202.005 16.7814 201.975 17.0069 201.979 17.233V22.2661H200.097V10.0589H201.979V15.1026H202.015C202.608 14.1848 203.458 13.7267 204.56 13.7267C205.34 13.7267 205.985 13.9788 206.497 14.4848C207.135 15.115 207.455 16.0524 207.455 17.2916V22.2679ZM217.741 17.6875C217.741 18.0213 217.716 18.3018 217.671 18.5308H212.022C212.047 19.3581 212.317 19.9884 212.84 20.4251C213.318 20.8157 213.934 21.011 214.689 21.011C215.525 21.011 216.287 20.8796 216.973 20.6151L217.268 21.9075C216.465 22.2519 215.519 22.4241 214.425 22.4241C213.113 22.4241 212.079 22.0424 211.332 21.279C210.58 20.5156 210.208 19.4913 210.208 18.2059C210.208 16.9437 210.555 15.8926 211.254 15.0547C211.984 14.1599 212.971 13.7125 214.216 13.7125C215.435 13.7125 216.36 14.1599 216.986 15.0547C217.491 15.7648 217.741 16.6436 217.741 17.6875ZM215.944 17.2064C215.97 16.7047 215.843 16.2067 215.579 15.7773C215.252 15.2606 214.754 15.0014 214.08 15.0014C213.786 14.9965 213.496 15.0631 213.234 15.1953C212.973 15.3275 212.748 15.5213 212.581 15.7595C212.261 16.1807 212.068 16.682 212.022 17.2064L215.944 17.2064Z" fill="white"/>
</g>
<defs>
<clipPath id="clip0_1_4427">
<rect width="254" height="72" fill="white" transform="translate(0.5)"/>
</clipPath>
</defs>
</svg>
