<svg width="244" height="72" viewBox="0 0 244 72" fill="none" xmlns="http://www.w3.org/2000/svg">
<path d="M234.499 72L9.49945 72C4.54881 72 0.5 67.95 0.5 62.9995L0.5 9.00321C0.5 4.05003 4.55016 0 9.49945 0L234.499 0C239.45 0 243.5 4.05003 243.5 8.99916V62.9995C243.5 67.9486 239.45 72 234.499 72Z" fill="#100F0D"/>
<path d="M193.423 53.8184H196.791V31.7928H193.423V53.8184ZM223.756 39.7275L219.895 49.2756H219.78L215.774 39.7275H212.146L218.156 53.0732L214.729 60.4979H218.241L227.5 39.7275L223.756 39.7275ZM204.657 51.3158C203.556 51.3158 202.017 50.778 202.017 49.4461C202.017 47.7468 203.932 47.0941 205.587 47.0941C207.066 47.0941 207.765 47.4059 208.663 47.8314C208.54 48.787 208.066 49.6665 207.329 50.3073C206.593 50.9481 205.643 51.3055 204.657 51.3158ZM205.064 39.2452C202.626 39.2452 200.102 40.2944 199.057 42.6187L202.046 43.8356C202.684 42.6187 203.873 42.2223 205.122 42.2223C206.864 42.2223 208.635 43.2397 208.663 45.0552V45.2812C208.054 44.9416 206.747 44.4316 205.151 44.4316C201.928 44.4316 198.648 46.1599 198.648 49.3893C198.648 52.3359 201.29 54.2347 204.251 54.2347C206.514 54.2347 207.765 53.2437 208.546 52.0809H208.663V53.7828H211.916V45.338C211.916 41.4268 208.923 39.2452 205.064 39.2452ZM184.251 42.4086H179.462V34.8597H184.251C186.769 34.8597 188.198 36.8946 188.198 38.6335C188.198 40.3406 186.769 42.4086 184.251 42.4086ZM184.165 31.7928H176.096V53.8198H179.462V45.4754H184.165C187.898 45.4754 191.566 42.838 191.566 38.6348C191.566 34.4329 187.898 31.7941 184.165 31.7941V31.7928ZM140.163 51.3211C137.838 51.3211 135.89 49.4183 135.89 46.8087C135.89 44.1686 137.838 42.2394 140.163 42.2394C142.46 42.2394 144.263 44.1686 144.263 46.8087C144.263 49.4197 142.46 51.3211 140.163 51.3211ZM144.03 40.9617H143.914C143.159 40.0817 141.703 39.2875 139.873 39.2875C136.035 39.2875 132.517 42.5803 132.517 46.8087C132.517 51.0092 136.035 54.2743 139.873 54.2743C141.703 54.2743 143.159 53.4789 143.914 52.5698H144.03V53.648C144.03 56.5153 142.46 58.0481 139.93 58.0481C137.867 58.0481 136.587 56.6012 136.064 55.3803L133.127 56.5721C133.97 58.5581 136.209 61 139.932 61C143.885 61 147.23 58.7286 147.23 53.1934V39.7421H144.03V40.9617ZM149.556 53.8184H152.926V31.7915H149.556V53.8184ZM157.899 46.5536C157.813 43.6586 160.198 42.1826 161.913 42.1826C163.25 42.1826 164.383 42.8354 164.762 43.7709L157.899 46.5536ZM168.367 44.0563C167.726 42.3808 165.779 39.2862 161.796 39.2862C157.841 39.2862 154.555 42.3253 154.555 46.7809C154.555 50.9815 157.813 54.273 162.173 54.273C165.692 54.273 167.728 52.1734 168.571 50.9524L165.955 49.2492C165.081 50.4992 163.89 51.3224 162.173 51.3224C160.459 51.3224 159.237 50.556 158.453 49.0497L168.716 44.9072L168.367 44.0563ZM86.5958 41.5854V44.7659H94.3884C94.1556 46.5536 93.5451 47.8578 92.6152 48.7669C91.4809 49.8742 89.7077 51.0951 86.5971 51.0951C81.7986 51.0951 78.0491 47.32 78.0491 42.6372C78.0491 37.9543 81.7986 34.1779 86.5971 34.1779C89.1852 34.1779 91.0735 35.1715 92.4704 36.4493L94.7674 34.2069C92.8183 32.3901 90.2315 31 86.5971 31C80.0254 31 74.5 36.222 74.5 42.6372C74.5 49.051 80.0254 54.273 86.5971 54.273C90.1435 54.273 92.8183 53.1379 94.9123 51.0092C97.0645 48.9083 97.7332 45.9577 97.7332 43.5727C97.7332 42.8354 97.6736 42.1549 97.5572 41.5867L86.5958 41.5854ZM106.592 51.3211C104.266 51.3211 102.26 49.4487 102.26 46.7809C102.26 44.084 104.266 42.2394 106.591 42.2394C108.918 42.2394 110.924 44.084 110.924 46.7809C110.924 49.4487 108.918 51.3211 106.592 51.3211ZM106.592 39.2875C102.346 39.2875 98.8864 42.4376 98.8864 46.7796C98.8864 51.0951 102.346 54.273 106.592 54.273C110.837 54.273 114.297 51.0951 114.297 46.7809C114.297 42.4376 110.837 39.2875 106.592 39.2875ZM123.4 51.3211C121.075 51.3211 119.069 49.4487 119.069 46.7809C119.069 44.084 121.075 42.2394 123.4 42.2394C125.727 42.2394 127.732 44.084 127.732 46.7809C127.732 49.4487 125.727 51.3211 123.4 51.3211ZM123.4 39.2875C119.155 39.2875 115.695 42.4376 115.695 46.7796C115.695 51.0951 119.155 54.273 123.4 54.273C127.646 54.273 131.106 51.0951 131.106 46.7809C131.106 42.4376 127.646 39.2875 123.4 39.2875Z" fill="white"/>
<path d="M37.4917 35L18.5 55.1807L18.5027 55.1928C18.707 55.9573 19.0851 56.6643 19.6075 57.2583C20.1299 57.8524 20.7824 58.3175 21.5141 58.6173C22.2457 58.9171 23.0367 59.0436 23.8253 58.9867C24.6138 58.9299 25.3785 58.6913 26.0597 58.2897L26.1213 58.2549L47.5 45.9048L37.4917 35Z" fill="#EB3131"/>
<path d="M56.8653 31.4486L56.8468 31.435L47.7491 26L37.5 35.3991L47.7874 46L56.8363 40.6166C57.6389 40.1719 58.31 39.5121 58.7789 38.7067C59.2477 37.9014 59.4969 36.9805 59.5 36.0413C59.5031 35.102 59.26 34.1794 58.7965 33.3708C58.333 32.5622 57.6662 31.8976 56.8666 31.4473" fill="#F6B60B"/>
<path d="M18.6755 17C18.5607 17.4186 18.5 17.8558 18.5 18.3116L18.5 53.691C18.5 54.1442 18.5594 54.5841 18.6755 55L38.5 35.4917L18.6768 17" fill="#5778C5"/>
<path d="M37.6574 36L47.5 26.1473L26.1187 13.7338C25.4357 13.3237 24.667 13.0779 23.8731 13.0157C23.0792 12.9535 22.2817 13.0765 21.5433 13.3752C20.8049 13.6738 20.1457 14.1399 19.6177 14.7368C19.0896 15.3336 18.707 16.045 18.5 16.815V16.8204L37.6574 36Z" fill="#3BAD49"/>
<path d="M86.3854 17.6H81.1305V18.9785H85.0683C84.9602 20.1022 84.5388 20.9854 83.8268 21.6267C83.1149 22.2665 82.2058 22.5886 81.1318 22.5886C79.9525 22.5886 78.9529 22.1534 78.1329 21.2889C77.3318 20.4071 76.9238 19.3149 76.9238 17.9994C76.9238 16.6853 77.3318 15.5946 78.1342 14.71C78.9529 13.8454 79.9525 13.4131 81.1318 13.4131C81.737 13.4131 82.3138 13.5233 82.842 13.7652C83.3716 14.0071 83.7958 14.3435 84.1281 14.7758L85.1277 13.7165C84.6508 13.154 84.0544 12.7198 83.3878 12.4497C82.6706 12.1458 81.9043 11.9932 81.1318 12.0002C79.5581 12.0002 78.2247 12.5785 77.1346 13.7323C76.0458 14.8889 75.5 16.3146 75.5 17.9994C75.5 19.6842 76.0458 21.1128 77.1346 22.268C78.2234 23.4217 79.5581 24 81.1305 24C82.7826 24 84.0997 23.4389 85.1129 22.2994C86.0045 21.3518 86.4611 20.0693 86.4611 18.4646C86.4611 18.1926 86.43 17.9049 86.3854 17.6ZM88.4212 12.2565V23.7438H94.7501V22.3324H89.8139V18.6894L94.2665 18.6894V17.3109L89.8126 17.3109V13.6693H94.7487V12.2579L88.4212 12.2565ZM103.625 13.6693V12.2579L96.1753 12.2579V13.6707L99.2039 13.6707V23.7452H100.597V13.6707L103.625 13.6693ZM110.369 12.2565H108.978V23.7438H110.369V12.2565ZM119.564 13.6693V12.2579H112.114V13.6707L115.143 13.6707V23.7452H116.536V13.6707L119.564 13.6693ZM133.622 13.7509C132.546 12.5771 131.231 12.0002 129.656 12.0002C128.08 12.0002 126.763 12.5785 125.688 13.7323C124.613 14.8717 124.084 16.3003 124.084 17.9994C124.084 19.6985 124.613 21.1285 125.688 22.268C126.763 23.4217 128.079 24 129.656 24C131.216 24 132.546 23.4217 133.622 22.268C134.697 21.1285 135.225 19.7 135.225 17.9994C135.225 16.3146 134.697 14.8889 133.622 13.7509ZM126.688 14.71C127.489 13.8454 128.475 13.4131 129.656 13.4131C130.835 13.4131 131.821 13.8454 132.609 14.71C133.411 15.5602 133.804 16.6696 133.804 17.9994C133.804 19.3335 133.411 20.4386 132.609 21.2889C131.821 22.1534 130.835 22.5886 129.656 22.5886C128.475 22.5886 127.489 22.1534 126.688 21.2889C125.901 20.4214 125.508 19.3335 125.508 17.9994C125.508 16.6696 125.901 15.5788 126.688 14.71ZM138.535 16.5894L138.477 14.3736H138.535L144.046 23.7438H145.5V12.2565H144.109V18.9771L144.167 21.1929H144.107L138.839 12.2565H137.142V23.7438H138.535V16.5894Z" fill="white" stroke="white" stroke-width="0.36045" stroke-miterlimit="10"/>
</svg>
