<svg width="58" height="48" viewBox="0 0 58 48" fill="none" xmlns="http://www.w3.org/2000/svg">
<path fill-rule="evenodd" clip-rule="evenodd" d="M0 6.80488C0 3.05202 3.02654 0 6.77193 0H42.2281C45.9735 0 49 3.05202 49 6.80488V10.9512H47V6.80488C47 4.14584 44.8582 2 42.2281 2H6.77193C4.14182 2 2 4.14584 2 6.80488V29.1951C2 31.8542 4.14183 34 6.77193 34H33.2442V36H6.77193C3.02654 36 0 32.948 0 29.1951V6.80488ZM18.1404 6.80488C18.1404 6.25259 18.5881 5.80488 19.1404 5.80488H29.8596C30.4119 5.80488 30.8596 6.25259 30.8596 6.80488C30.8596 7.35716 30.4119 7.80488 29.8596 7.80488H19.1404C18.5881 7.80488 18.1404 7.35716 18.1404 6.80488Z" fill="#142641"/>
<path fill-rule="evenodd" clip-rule="evenodd" d="M33 16.8605C33 13.0896 36.0042 10 39.75 10H51.25C54.9958 10 58 13.0896 58 16.8605V41.1395C58 44.9104 54.9958 48 51.25 48H39.75C36.0042 48 33 44.9104 33 41.1395V16.8605ZM39.75 12C37.1445 12 35 14.1581 35 16.8605V41.1395C35 43.8419 37.1445 46 39.75 46H51.25C53.8555 46 56 43.8419 56 41.1395V16.8605C56 14.1581 53.8555 12 51.25 12H39.75ZM42.0357 16.8605C42.0357 16.3082 42.4834 15.8605 43.0357 15.8605H48.7857C49.338 15.8605 49.7857 16.3082 49.7857 16.8605C49.7857 17.4127 49.338 17.8605 48.7857 17.8605H43.0357C42.4834 17.8605 42.0357 17.4127 42.0357 16.8605Z" fill="#0062F2"/>
</svg>
