<svg width="60" height="60" viewBox="0 0 60 60" fill="none" xmlns="http://www.w3.org/2000/svg">
<path fill-rule="evenodd" clip-rule="evenodd" d="M23.2758 12.0035C21.3838 16.5622 20.1916 22.9278 20.1916 30.0071C20.1916 33.2246 20.4386 36.2939 20.886 39.1128C23.7097 39.5616 26.7845 39.8094 30.0071 39.8094C33.2304 39.8094 36.305 39.5615 39.1281 39.1125C39.5768 36.2882 39.824 33.2135 39.824 29.9929C39.824 20.6801 37.7582 12.6588 34.7911 8.33393C34.1246 7.37456 33.4259 6.60643 32.7311 6.06048L32.7306 6.06012C31.8075 5.3339 30.9008 5 29.9936 5C28.8494 5 27.6691 5.55359 26.4989 6.74546C25.3252 7.94086 24.2227 9.722 23.2758 12.0035ZM40.8584 40.8426C43.8112 40.289 46.4883 39.5148 48.771 38.5649C51.1952 37.5562 53.2223 36.3297 54.6587 34.9165C56.0986 33.4998 57 31.8356 57 29.9932C57 29.4409 56.5523 28.9932 56 28.9932C55.4477 28.9932 55 29.4409 55 29.9932C55 31.138 54.4468 32.3193 53.256 33.4908C52.0618 34.6658 50.2823 35.7698 48.0027 36.7184C46.0434 37.5337 43.7496 38.2195 41.2083 38.7364C41.6082 35.9917 41.824 33.0489 41.824 29.9929C41.824 20.4781 39.7282 11.993 36.4386 7.19997L36.4355 7.19546C35.6867 6.11726 34.857 5.1873 33.9667 4.48784C32.7664 3.54372 31.4364 3 29.9936 3C28.1507 3 26.4871 3.90285 25.0718 5.34425C23.66 6.78212 22.4354 8.81108 21.4286 11.2369C19.4131 16.0929 18.1916 22.7308 18.1916 30.0071C18.1916 33.0579 18.4069 35.9959 18.8059 38.737C16.2621 38.22 13.9658 37.534 12.0041 36.7183C9.72263 35.7697 7.94137 34.6655 6.74582 33.4905C5.55373 32.3188 5 31.1375 5 29.9932C5 29.4409 4.55228 28.9932 4 28.9932C3.44772 28.9932 3 29.4409 3 29.9932C3 31.836 3.90271 33.5004 5.34388 34.9168C6.78161 36.3299 8.81045 37.5564 11.2363 38.565C13.5212 39.5151 16.2006 40.2894 19.1555 40.843C19.7093 43.8018 20.4845 46.4843 21.436 48.771C22.4447 51.1952 23.6713 53.2223 25.0845 54.6587C26.5011 56.0986 28.1654 57 30.0078 57C32.0272 57 33.828 55.9168 35.3298 54.2276C36.8319 52.5379 38.1147 50.1602 39.1317 47.3346C39.833 45.3878 40.4162 43.2035 40.8584 40.8426ZM38.7523 41.1928C36.0068 41.5932 33.0636 41.8094 30.0071 41.8094C26.951 41.8094 24.0075 41.5933 21.2614 41.193C21.7787 43.7404 22.4656 46.0394 23.2825 48.0027C24.2311 50.2823 25.3352 52.0618 26.5101 53.256C27.6816 54.4468 28.863 55 30.0078 55C31.2587 55 32.5584 54.3348 33.835 52.8987C35.1112 51.4632 36.2847 49.3389 37.2498 46.6573L37.2499 46.657C37.8418 45.0139 38.3488 43.1786 38.7523 41.1928Z" fill="#0062F2"/>
<path fill-rule="evenodd" clip-rule="evenodd" d="M8.62175 17.0215C7.6385 18.6612 6.82274 20.4039 6.22563 22.25L6.22394 22.2552L6.22393 22.2552C5.42256 24.6872 5 27.3003 5 30C5 43.8067 16.2033 55 30.0071 55C43.8101 55 55 43.8074 55 30C55 22.8383 51.9793 16.3712 47.1448 11.8078C42.6651 7.58593 36.6363 5 29.9929 5C20.9429 5 13.007 9.81731 8.62175 17.0215ZM6.9116 15.9845C11.6441 8.20764 20.2148 3 29.9929 3C37.1669 3 43.6813 5.79512 48.5171 10.3529L48.5176 10.3534C53.7348 15.278 57 22.2641 57 30C57 44.9115 44.9152 57 30.0071 57C15.0997 57 3 44.9122 3 30C3 27.0928 3.45489 24.269 4.32352 21.632C4.97185 19.6282 5.85408 17.7475 6.9083 15.99L6.91158 15.9845L6.9116 15.9845Z" fill="#142641"/>
</svg>
