<svg width="60" height="60" viewBox="0 0 60 60" fill="none" xmlns="http://www.w3.org/2000/svg">
<path fill-rule="evenodd" clip-rule="evenodd" d="M1 27.8627C1 23.5136 4.54894 20 8.91176 20H42.0882C46.4511 20 50 23.5136 50 27.8627V49.1373C50 53.4864 46.4511 57 42.0882 57H8.91177C4.54894 57 1 53.4864 1 49.1373V27.8627ZM8.91176 22C5.64007 22 3 24.6315 3 27.8627V49.1373C3 52.3685 5.64007 55 8.91177 55H42.0882C45.3599 55 48 52.3685 48 49.1373V27.8627C48 24.6315 45.3599 22 42.0882 22H8.91176Z" fill="#142641"/>
<path fill-rule="evenodd" clip-rule="evenodd" d="M23 18.136C22.4477 18.136 22 17.6883 22 17.136L22 8.97414C22 4.58538 25.5051 0.999973 29.8627 0.999973L51.1373 0.999972C55.4949 0.999972 59 4.58538 59 8.97414L59 42.4501C59 45.8811 56.8616 48.8144 53.8492 49.937C53.3317 50.1299 52.7558 49.8667 52.563 49.3492C52.3701 48.8316 52.6333 48.2558 53.1508 48.0629C55.3907 47.2282 57 45.0352 57 42.4501L57 8.97414C57 5.65946 54.36 2.99997 51.1373 2.99997L29.8627 2.99997C26.64 2.99997 24 5.65946 24 8.97414L24 17.136C24 17.6883 23.5523 18.136 23 18.136Z" fill="#142641"/>
<path fill-rule="evenodd" clip-rule="evenodd" d="M7 31C7 30.4477 7.44772 30 8 30H30.931C31.4833 30 31.931 30.4477 31.931 31C31.931 31.5523 31.4833 32 30.931 32H8C7.44772 32 7 31.5523 7 31ZM7 37.25C7 36.6977 7.44772 36.25 8 36.25H22.9934C23.5457 36.25 23.9934 36.6977 23.9934 37.25C23.9934 37.8023 23.5457 38.25 22.9934 38.25H8C7.44772 38.25 7 37.8023 7 37.25ZM7 46C7 45.4477 7.44772 45 8 45H11.0172C11.5695 45 12.0172 45.4477 12.0172 46C12.0172 46.5523 11.5695 47 11.0172 47H8C7.44772 47 7 46.5523 7 46ZM13.0345 46C13.0345 45.4477 13.4822 45 14.0345 45H17.0517C17.604 45 18.0517 45.4477 18.0517 46C18.0517 46.5523 17.604 47 17.0517 47H14.0345C13.4822 47 13.0345 46.5523 13.0345 46ZM19.069 46C19.069 45.4477 19.5167 45 20.069 45H23.0862C23.6385 45 24.0862 45.4477 24.0862 46C24.0862 46.5523 23.6385 47 23.0862 47H20.069C19.5167 47 19.069 46.5523 19.069 46ZM27.5172 46C27.5172 45.4477 27.965 45 28.5172 45H31.5345C32.0868 45 32.5345 45.4477 32.5345 46C32.5345 46.5523 32.0868 47 31.5345 47H28.5172C27.965 47 27.5172 46.5523 27.5172 46ZM33.5517 46C33.5517 45.4477 33.9994 45 34.5517 45H37.569C38.1212 45 38.569 45.4477 38.569 46C38.569 46.5523 38.1212 47 37.569 47H34.5517C33.9994 47 33.5517 46.5523 33.5517 46ZM39.5862 46C39.5862 45.4477 40.0339 45 40.5862 45H43C43.5523 45 44 45.4477 44 46C44 46.5523 43.5523 47 43 47H40.5862C40.0339 47 39.5862 46.5523 39.5862 46Z" fill="#0062F2"/>
<path fill-rule="evenodd" clip-rule="evenodd" d="M36 9C36 8.44772 36.4477 8 37 8H39.9167C40.469 8 40.9167 8.44772 40.9167 9C40.9167 9.55228 40.469 10 39.9167 10H37C36.4477 10 36 9.55228 36 9ZM41.8333 9C41.8333 8.44772 42.281 8 42.8333 8H45.75C46.3023 8 46.75 8.44772 46.75 9C46.75 9.55228 46.3023 10 45.75 10H42.8333C42.281 10 41.8333 9.55228 41.8333 9ZM47.6667 9C47.6667 8.44772 48.1144 8 48.6667 8H51C51.5523 8 52 8.44772 52 9C52 9.55228 51.5523 10 51 10H48.6667C48.1144 10 47.6667 9.55228 47.6667 9Z" fill="#0062F2"/>
<path fill-rule="evenodd" clip-rule="evenodd" d="M36 16C36 15.4477 36.4477 15 37 15H39.9167C40.469 15 40.9167 15.4477 40.9167 16C40.9167 16.5523 40.469 17 39.9167 17H37C36.4477 17 36 16.5523 36 16ZM41.8333 16C41.8333 15.4477 42.281 15 42.8333 15H45.75C46.3023 15 46.75 15.4477 46.75 16C46.75 16.5523 46.3023 17 45.75 17H42.8333C42.281 17 41.8333 16.5523 41.8333 16ZM47.6667 16C47.6667 15.4477 48.1144 15 48.6667 15H51C51.5523 15 52 15.4477 52 16C52 16.5523 51.5523 17 51 17H48.6667C48.1144 17 47.6667 16.5523 47.6667 16Z" fill="#0062F2"/>
</svg>
