<svg width="200" height="28" viewBox="0 0 200 28" fill="none" xmlns="http://www.w3.org/2000/svg">
<g clip-path="url(#clip0_9_1764)">
<path d="M49.678 18.9715L44.2811 5.0979H40.6875V23.1541H43.1399V8.95317L48.7326 23.2304H50.5221L56.1647 8.82601V23.1541H58.6928V5.0979H55.0747L49.678 18.9715Z" fill="white"/>
<path d="M66.173 5.0979H63.5193V23.1541H66.173V5.0979Z" fill="white"/>
<path d="M101.658 14.1096C102.381 13.0952 102.767 11.8723 102.759 10.6191C102.759 9.14126 102.124 7.76313 100.971 6.73707C99.7819 5.68021 98.1289 5.10059 96.3106 5.10059H88.985V23.1568H91.6387V16.6992H95.9368L99.6865 23.1542H102.836L98.8233 16.2555C99.9554 15.8399 100.941 15.0934 101.658 14.1096ZM100.055 10.6446C100.061 11.1185 99.9733 11.5888 99.7973 12.0276C99.6215 12.4664 99.3606 12.8649 99.0307 13.1993C98.3552 13.8754 97.4072 14.2475 96.3611 14.2475H91.6354V7.57707H96.3611C98.4669 7.57707 100.055 8.89496 100.055 10.6446Z" fill="white"/>
<path d="M114.011 4.79272C111.52 4.79272 109.274 5.77194 107.678 7.54898C106.143 9.26243 105.297 11.5984 105.297 14.1257C105.297 16.6531 106.143 19.0017 107.678 20.7125C109.269 22.4835 111.517 23.4567 114.011 23.4567C116.514 23.4567 118.771 22.4808 120.365 20.7125C121.903 19.0037 122.749 16.6644 122.749 14.1257C122.749 11.587 121.903 9.2611 120.365 7.54898C118.769 5.76992 116.512 4.79272 114.011 4.79272ZM114.011 20.9294C113.193 20.9325 112.385 20.7559 111.641 20.4118C110.897 20.0677 110.234 19.5641 109.699 18.9354C108.605 17.6711 108.002 15.9623 108.002 14.1257C108.002 12.2891 108.605 10.5937 109.699 9.32537C110.814 8.03356 112.345 7.32208 114.011 7.32208C115.676 7.32208 117.214 8.03356 118.335 9.32603C119.438 10.5977 120.046 12.3005 120.046 14.1257C120.046 15.951 119.438 17.6684 118.335 18.9354C117.797 19.564 117.133 20.0674 116.386 20.4114C115.64 20.7555 114.83 20.9321 114.011 20.9294Z" fill="white"/>
<path d="M137.295 13.6826C138.843 12.8125 139.762 11.2864 139.762 9.57697C139.762 6.93985 137.46 5.0979 134.171 5.0979H126.389V23.1541H134.546C137.786 23.1541 140.137 20.9601 140.137 17.9375C140.14 16.1243 139.053 14.5052 137.295 13.6826ZM134.623 20.6756H129.041V15.0734H134.243C136.151 15.0734 137.434 16.1129 137.434 17.659C137.436 19.491 136.331 20.6756 134.623 20.6756ZM133.943 12.6438H129.041V7.57706H134.243C135.954 7.57706 137.056 8.48197 137.056 9.88285C137.058 11.2583 136.095 12.6451 133.943 12.6451V12.6438Z" fill="white"/>
<path d="M146.614 5.0979H143.959V23.1541H155.573V20.6248H146.614V5.0979Z" fill="white"/>
<path d="M161.188 5.0979H158.533V23.1541H161.188V5.0979Z" fill="white"/>
<path d="M177.858 18.4569L168.61 5.1541L168.571 5.0979H166.005V23.1541H168.508V9.13389L178.249 23.1541H180.361V5.0979H177.858V18.4569Z" fill="white"/>
<path d="M192.219 13.0421L199.165 5.0979H195.918L187.829 14.3338V5.0979H185.175V23.1541H187.829V17.9127L190.404 14.9998L196.136 23.1541H199.354L192.219 13.0421Z" fill="white"/>
<path d="M83.4592 17.0453C82.2751 19.7855 80.7563 20.9548 78.3697 20.9548C76.7389 20.9548 75.2451 20.246 74.1634 18.9595C73.0984 17.6925 72.5117 15.9757 72.5117 14.1257C72.5117 12.2898 73.0853 10.5844 74.1261 9.32335C75.1918 8.03291 76.6718 7.32208 78.2948 7.32208C80.4932 7.32208 82.1008 8.43651 83.2099 10.7289L83.2574 10.826H86.0339L86.0208 10.7477C85.9549 10.3675 85.8182 10.0114 85.686 9.66203L85.6432 9.54957C85.0756 8.11292 84.0825 6.89177 82.8015 6.05573C81.5219 5.21774 79.9801 4.79272 78.2191 4.79272C75.8114 4.79272 73.6392 5.77194 72.1012 7.551C70.6218 9.26311 69.8068 11.5984 69.8068 14.1257C69.8068 16.6872 70.6263 19.0325 72.1144 20.7299C73.6801 22.5156 75.8252 23.4594 78.319 23.4594C80.0661 23.4594 81.6016 22.9989 82.883 22.0913C83.0984 21.9389 83.3055 21.7747 83.5033 21.5994C84.8027 20.4495 85.7867 18.8143 86.1345 17.2247L86.1431 17.1832C86.155 17.1283 86.1656 17.0734 86.1747 17.0185L86.188 16.9402H83.5013L83.4592 17.0453Z" fill="white"/>
<path fill-rule="evenodd" clip-rule="evenodd" d="M24.6037 5.12082L27.8013 13.101C27.9367 13.4383 28.0041 13.7991 27.9998 14.1625C27.9957 14.5259 27.9199 14.885 27.7766 15.2191L24.3929 23.1249C24.25 23.4587 24.0429 23.761 23.7832 24.0147C23.5235 24.2683 23.2164 24.4684 22.8794 24.6034L14.8966 27.8015C14.5595 27.9367 14.1992 28.0039 13.8361 27.9998C13.473 27.9955 13.1142 27.9199 12.7804 27.7768L4.87447 24.3925C4.20056 24.1039 3.66877 23.5596 3.39596 22.8792L0.198444 14.8964C0.0633611 14.5594 -0.00403065 14.1992 0.000186353 13.8362C0.00440335 13.4732 0.0801388 13.1146 0.223013 12.7809L3.60679 4.87439C3.89541 4.20052 4.43977 3.66876 5.12023 3.39594L13.1031 0.198434C13.4401 0.063334 13.8006 -0.00403049 14.1637 0.000186413C14.5268 0.00440332 14.8855 0.0801192 15.2193 0.22301L23.1252 3.60678C23.459 3.74963 23.7615 3.95685 24.0152 4.21663C24.2689 4.47644 24.4688 4.78368 24.6037 5.12082ZM20.0045 19.4768C20.6196 19.1603 21.2905 18.8152 22.0264 18.412C23.2391 17.751 24.1212 16.6082 24.345 15.5631C24.5908 14.5076 24.1756 13.5504 23.3426 13.0252C21.4406 11.807 20.6595 10.2889 19.4779 7.9926C19.1616 7.37784 18.8165 6.70732 18.4136 5.97182C17.7559 4.75853 16.6131 3.87506 15.5679 3.65323C14.5124 3.40683 13.5552 3.82268 13.03 4.65569C11.812 6.55717 10.2943 7.33798 7.99889 8.51892C7.38372 8.83542 6.71268 9.18065 5.97655 9.5839C4.76324 10.2455 3.8804 11.3883 3.6579 12.4335C3.41215 13.4883 3.82735 14.4461 4.66038 14.9707C6.5623 16.1889 7.34345 17.707 8.52502 20.0033C8.84134 20.618 9.18637 21.2886 9.58927 22.0241C10.247 23.2374 11.3899 24.1208 12.435 24.3426C13.4905 24.589 14.4477 24.1738 14.9729 23.3408C16.191 21.4387 17.7088 20.6579 20.0045 19.4768Z" fill="url(#paint0_linear_9_1764)"/>
<path fill-rule="evenodd" clip-rule="evenodd" d="M24.6037 5.12082L27.8013 13.101C27.9367 13.4383 28.0041 13.7991 27.9998 14.1625C27.9957 14.5259 27.9199 14.885 27.7766 15.2191L24.3929 23.1249C24.25 23.4587 24.0429 23.761 23.7832 24.0147C23.5235 24.2683 23.2164 24.4684 22.8794 24.6034L14.8966 27.8015C14.5595 27.9367 14.1992 28.0039 13.8361 27.9998C13.473 27.9955 13.1142 27.9199 12.7804 27.7768L4.87447 24.3925C4.20056 24.1039 3.66877 23.5596 3.39596 22.8792L0.198444 14.8964C0.0633611 14.5594 -0.00403065 14.1992 0.000186353 13.8362C0.00440335 13.4732 0.0801388 13.1146 0.223013 12.7809L3.60679 4.87439C3.89541 4.20052 4.43977 3.66876 5.12023 3.39594L13.1031 0.198434C13.4401 0.063334 13.8006 -0.00403049 14.1637 0.000186413C14.5268 0.00440332 14.8855 0.0801192 15.2193 0.22301L23.1252 3.60678C23.459 3.74963 23.7615 3.95685 24.0152 4.21663C24.2689 4.47644 24.4688 4.78368 24.6037 5.12082ZM20.0045 19.4768C20.6196 19.1603 21.2905 18.8152 22.0264 18.412C23.2391 17.751 24.1212 16.6082 24.345 15.5631C24.5908 14.5076 24.1756 13.5504 23.3426 13.0252C21.4406 11.807 20.6595 10.2889 19.4779 7.9926C19.1616 7.37784 18.8165 6.70732 18.4136 5.97182C17.7559 4.75853 16.6131 3.87506 15.5679 3.65323C14.5124 3.40683 13.5552 3.82268 13.03 4.65569C11.812 6.55717 10.2943 7.33798 7.99889 8.51892C7.38372 8.83542 6.71268 9.18065 5.97655 9.5839C4.76324 10.2455 3.8804 11.3883 3.6579 12.4335C3.41215 13.4883 3.82735 14.4461 4.66038 14.9707C6.5623 16.1889 7.34345 17.707 8.52502 20.0033C8.84134 20.618 9.18637 21.2886 9.58927 22.0241C10.247 23.2374 11.3899 24.1208 12.435 24.3426C13.4905 24.589 14.4477 24.1738 14.9729 23.3408C16.191 21.4387 17.7088 20.6579 20.0045 19.4768Z" fill="url(#paint1_linear_9_1764)" fill-opacity="0.5"/>
<path fill-rule="evenodd" clip-rule="evenodd" d="M24.6037 5.12082L27.8013 13.101C27.9367 13.4383 28.0041 13.7991 27.9998 14.1625C27.9957 14.5259 27.9199 14.885 27.7766 15.2191L24.3929 23.1249C24.25 23.4587 24.0429 23.761 23.7832 24.0147C23.5235 24.2683 23.2164 24.4684 22.8794 24.6034L14.8966 27.8015C14.5595 27.9367 14.1992 28.0039 13.8361 27.9998C13.473 27.9955 13.1142 27.9199 12.7804 27.7768L4.87447 24.3925C4.20056 24.1039 3.66877 23.5596 3.39596 22.8792L0.198444 14.8964C0.0633611 14.5594 -0.00403065 14.1992 0.000186353 13.8362C0.00440335 13.4732 0.0801388 13.1146 0.223013 12.7809L3.60679 4.87439C3.89541 4.20052 4.43977 3.66876 5.12023 3.39594L13.1031 0.198434C13.4401 0.063334 13.8006 -0.00403049 14.1637 0.000186413C14.5268 0.00440332 14.8855 0.0801192 15.2193 0.22301L23.1252 3.60678C23.459 3.74963 23.7615 3.95685 24.0152 4.21663C24.2689 4.47644 24.4688 4.78368 24.6037 5.12082ZM20.0045 19.4768C20.6196 19.1603 21.2905 18.8152 22.0264 18.412C23.2391 17.751 24.1212 16.6082 24.345 15.5631C24.5908 14.5076 24.1756 13.5504 23.3426 13.0252C21.4406 11.807 20.6595 10.2889 19.4779 7.9926C19.1616 7.37784 18.8165 6.70732 18.4136 5.97182C17.7559 4.75853 16.6131 3.87506 15.5679 3.65323C14.5124 3.40683 13.5552 3.82268 13.03 4.65569C11.812 6.55717 10.2943 7.33798 7.99889 8.51892C7.38372 8.83542 6.71268 9.18065 5.97655 9.5839C4.76324 10.2455 3.8804 11.3883 3.6579 12.4335C3.41215 13.4883 3.82735 14.4461 4.66038 14.9707C6.5623 16.1889 7.34345 17.707 8.52502 20.0033C8.84134 20.618 9.18637 21.2886 9.58927 22.0241C10.247 23.2374 11.3899 24.1208 12.435 24.3426C13.4905 24.589 14.4477 24.1738 14.9729 23.3408C16.191 21.4387 17.7088 20.6579 20.0045 19.4768Z" fill="url(#paint2_linear_9_1764)" fill-opacity="0.15"/>
<path fill-rule="evenodd" clip-rule="evenodd" d="M24.6037 5.12082L27.8013 13.101C27.9367 13.4383 28.0041 13.7991 27.9998 14.1625C27.9957 14.5259 27.9199 14.885 27.7766 15.2191L24.3929 23.1249C24.25 23.4587 24.0429 23.761 23.7832 24.0147C23.5235 24.2683 23.2164 24.4684 22.8794 24.6034L14.8966 27.8015C14.5595 27.9367 14.1992 28.0039 13.8361 27.9998C13.473 27.9955 13.1142 27.9199 12.7804 27.7768L4.87447 24.3925C4.20056 24.1039 3.66877 23.5596 3.39596 22.8792L0.198444 14.8964C0.0633611 14.5594 -0.00403065 14.1992 0.000186353 13.8362C0.00440335 13.4732 0.0801388 13.1146 0.223013 12.7809L3.60679 4.87439C3.89541 4.20052 4.43977 3.66876 5.12023 3.39594L13.1031 0.198434C13.4401 0.063334 13.8006 -0.00403049 14.1637 0.000186413C14.5268 0.00440332 14.8855 0.0801192 15.2193 0.22301L23.1252 3.60678C23.459 3.74963 23.7615 3.95685 24.0152 4.21663C24.2689 4.47644 24.4688 4.78368 24.6037 5.12082ZM20.0045 19.4768C20.6196 19.1603 21.2905 18.8152 22.0264 18.412C23.2391 17.751 24.1212 16.6082 24.345 15.5631C24.5908 14.5076 24.1756 13.5504 23.3426 13.0252C21.4406 11.807 20.6595 10.2889 19.4779 7.9926C19.1616 7.37784 18.8165 6.70732 18.4136 5.97182C17.7559 4.75853 16.6131 3.87506 15.5679 3.65323C14.5124 3.40683 13.5552 3.82268 13.03 4.65569C11.812 6.55717 10.2943 7.33798 7.99889 8.51892C7.38372 8.83542 6.71268 9.18065 5.97655 9.5839C4.76324 10.2455 3.8804 11.3883 3.6579 12.4335C3.41215 13.4883 3.82735 14.4461 4.66038 14.9707C6.5623 16.1889 7.34345 17.707 8.52502 20.0033C8.84134 20.618 9.18637 21.2886 9.58927 22.0241C10.247 23.2374 11.3899 24.1208 12.435 24.3426C13.4905 24.589 14.4477 24.1738 14.9729 23.3408C16.191 21.4387 17.7088 20.6579 20.0045 19.4768Z" fill="url(#paint3_radial_9_1764)"/>
<path fill-rule="evenodd" clip-rule="evenodd" d="M24.6037 5.12082L27.8013 13.101C27.9367 13.4383 28.0041 13.7991 27.9998 14.1625C27.9957 14.5259 27.9199 14.885 27.7766 15.2191L24.3929 23.1249C24.25 23.4587 24.0429 23.761 23.7832 24.0147C23.5235 24.2683 23.2164 24.4684 22.8794 24.6034L14.8966 27.8015C14.5595 27.9367 14.1992 28.0039 13.8361 27.9998C13.473 27.9955 13.1142 27.9199 12.7804 27.7768L4.87447 24.3925C4.20056 24.1039 3.66877 23.5596 3.39596 22.8792L0.198444 14.8964C0.0633611 14.5594 -0.00403065 14.1992 0.000186353 13.8362C0.00440335 13.4732 0.0801388 13.1146 0.223013 12.7809L3.60679 4.87439C3.89541 4.20052 4.43977 3.66876 5.12023 3.39594L13.1031 0.198434C13.4401 0.063334 13.8006 -0.00403049 14.1637 0.000186413C14.5268 0.00440332 14.8855 0.0801192 15.2193 0.22301L23.1252 3.60678C23.459 3.74963 23.7615 3.95685 24.0152 4.21663C24.2689 4.47644 24.4688 4.78368 24.6037 5.12082ZM20.0045 19.4768C20.6196 19.1603 21.2905 18.8152 22.0264 18.412C23.2391 17.751 24.1212 16.6082 24.345 15.5631C24.5908 14.5076 24.1756 13.5504 23.3426 13.0252C21.4406 11.807 20.6595 10.2889 19.4779 7.9926C19.1616 7.37784 18.8165 6.70732 18.4136 5.97182C17.7559 4.75853 16.6131 3.87506 15.5679 3.65323C14.5124 3.40683 13.5552 3.82268 13.03 4.65569C11.812 6.55717 10.2943 7.33798 7.99889 8.51892C7.38372 8.83542 6.71268 9.18065 5.97655 9.5839C4.76324 10.2455 3.8804 11.3883 3.6579 12.4335C3.41215 13.4883 3.82735 14.4461 4.66038 14.9707C6.5623 16.1889 7.34345 17.707 8.52502 20.0033C8.84134 20.618 9.18637 21.2886 9.58927 22.0241C10.247 23.2374 11.3899 24.1208 12.435 24.3426C13.4905 24.589 14.4477 24.1738 14.9729 23.3408C16.191 21.4387 17.7088 20.6579 20.0045 19.4768Z" fill="url(#paint4_radial_9_1764)"/>
</g>
<defs>
<linearGradient id="paint0_linear_9_1764" x1="16.1632" y1="1.49392e-07" x2="9.92691" y2="37.7994" gradientUnits="userSpaceOnUse">
<stop stop-color="#0062F2"/>
<stop offset="0.249582" stop-color="#C6DDFF"/>
<stop offset="0.59375" stop-color="#C6DDFF"/>
<stop offset="1" stop-color="#0062F2"/>
</linearGradient>
<linearGradient id="paint1_linear_9_1764" x1="-13.4906" y1="15.2725" x2="38.69" y2="27.9993" gradientUnits="userSpaceOnUse">
<stop offset="0.279297" stop-color="#0062F2"/>
<stop offset="0.474855" stop-color="#AAC8F3"/>
<stop offset="1" stop-color="#0062F2"/>
</linearGradient>
<linearGradient id="paint2_linear_9_1764" x1="19.0904" y1="4.13963e-07" x2="16.9268" y2="12.0907" gradientUnits="userSpaceOnUse">
<stop/>
<stop offset="1" stop-opacity="0"/>
</linearGradient>
<radialGradient id="paint3_radial_9_1764" cx="0" cy="0" r="1" gradientUnits="userSpaceOnUse" gradientTransform="translate(13.9996 15.2725) rotate(117.387) scale(11.8969 11.8969)">
<stop stop-color="#C5D9F6"/>
<stop offset="1" stop-color="#C4DAF3" stop-opacity="0"/>
</radialGradient>
<radialGradient id="paint4_radial_9_1764" cx="0" cy="0" r="1" gradientUnits="userSpaceOnUse" gradientTransform="translate(22.1449 15.018) rotate(126.027) scale(13.8485 13.8486)">
<stop stop-color="#DFFF00"/>
<stop offset="1" stop-color="#F1FBCE" stop-opacity="0"/>
</radialGradient>
<clipPath id="clip0_9_1764">
<rect width="199.5" height="28" fill="white"/>
</clipPath>
</defs>
</svg>
