<svg width="486" height="414" viewBox="0 0 486 414" fill="none" xmlns="http://www.w3.org/2000/svg">
<rect width="486" height="414" fill="#F5F5F5"/>
<g filter="url(#filter0_d_0_1)">
<path d="M246.073 405.5L15.9271 405.5C10.4445 405.5 6.00003 401.056 6.00003 395.573L6 14.43C6 8.94582 10.4458 4.50002 15.93 4.50002L246.07 4.5C251.554 4.5 256 8.9458 256 14.43L256 395.573C256 401.056 251.555 405.5 246.073 405.5Z" fill="white" stroke="#D1DAEB"/>
</g>
<path d="M49.2881 48.9087H46.3861V53H44.8321V41.5349H49.2881C51.5399 41.5349 52.9829 43.0097 52.9829 45.2139C52.9829 47.3547 51.524 48.9087 49.2881 48.9087ZM49.0185 42.9304H46.3861V47.5133H48.9551C50.4933 47.5133 51.3496 46.6094 51.3496 45.198C51.3496 43.755 50.4774 42.9304 49.0185 42.9304ZM56.4473 53.1903C54.7823 53.1903 53.7991 52.2547 53.7991 50.8434C53.7991 49.4162 54.8616 48.5281 56.6852 48.3854L59.1273 48.1951V47.9731C59.1273 46.6728 58.3503 46.2129 57.3037 46.2129C56.0509 46.2129 55.3373 46.7679 55.3373 47.7035H54.037C54.037 46.0861 55.369 45.0236 57.3671 45.0236C59.2859 45.0236 60.5862 46.0385 60.5862 48.1317V53H59.3176L59.159 51.7473C58.7626 52.6353 57.7001 53.1903 56.4473 53.1903ZM56.8755 52.0327C58.2868 52.0327 59.1432 51.113 59.1432 49.654V49.2417L57.1609 49.4003C55.8448 49.5272 55.3056 50.0346 55.3056 50.7958C55.3056 51.6204 55.9082 52.0327 56.8755 52.0327ZM61.7194 56.4729V55.2518H62.7185C63.4321 55.2518 64.0029 55.1408 64.3677 54.1576L64.6373 53.4123L61.5133 45.2456H63.0832L65.335 51.4935L67.6344 45.2456H69.1726L65.5094 54.7444C64.9861 56.0764 64.2091 56.6315 63.0198 56.6315C62.5282 56.6315 62.1159 56.568 61.7194 56.4729ZM71.8533 53H70.3626V45.2456H71.6947L71.8374 46.2605C72.2339 45.531 73.0585 45.0236 74.1526 45.0236C75.3578 45.0236 76.2141 45.6262 76.6106 46.5935C76.9753 45.6262 77.9109 45.0236 79.1161 45.0236C80.8922 45.0236 81.9705 46.1336 81.9705 47.9256V53H80.5116V48.2903C80.5116 47.0692 79.8297 46.3715 78.7831 46.3715C77.6572 46.3715 76.9119 47.1644 76.9119 48.4013V53H75.4371V48.2744C75.4371 47.0534 74.7711 46.3874 73.7245 46.3874C72.5986 46.3874 71.8533 47.1644 71.8533 48.4013V53ZM87.3828 53.1903C85.0993 53.1903 83.5294 51.5411 83.5294 49.1307C83.5294 46.7045 85.0676 45.0236 87.3194 45.0236C89.5236 45.0236 90.9667 46.5459 90.9667 48.8453V49.4003L84.9724 49.4162C85.0835 51.0495 85.9398 51.9534 87.4145 51.9534C88.5722 51.9534 89.3333 51.4777 89.5871 50.5897H90.9825C90.6019 52.2547 89.3016 53.1903 87.3828 53.1903ZM87.3194 46.2763C86.0191 46.2763 85.1945 47.0534 85.0042 48.4171H89.476C89.476 47.1327 88.6356 46.2763 87.3194 46.2763ZM94.1222 53H92.6316V45.2456H93.9795L94.1381 46.4349C94.6297 45.5469 95.6129 45.0236 96.7071 45.0236C98.7527 45.0236 99.6883 46.2763 99.6883 48.2586V53H98.1977V48.5916C98.1977 47.0217 97.4682 46.3874 96.3265 46.3874C94.931 46.3874 94.1222 47.3864 94.1222 48.8929V53ZM103.941 53H102.451V46.4984H100.928V45.2456H102.451V42.8194H103.941V45.2456H105.464V46.4984H103.941V53ZM114.246 53.1903C111.994 53.1903 110.63 51.5094 110.63 49.1466C110.63 46.7679 112.01 45.0236 114.309 45.0236C115.498 45.0236 116.497 45.5469 117.021 46.4984V41.3287H118.495V53H117.163L117.037 51.5887C116.529 52.6512 115.482 53.1903 114.246 53.1903ZM114.547 51.8424C116.069 51.8424 117.005 50.7165 117.005 49.099C117.005 47.5133 116.069 46.3715 114.547 46.3715C113.025 46.3715 112.137 47.5133 112.137 49.099C112.137 50.7007 113.025 51.8424 114.547 51.8424ZM123.992 53.1903C121.708 53.1903 120.138 51.5411 120.138 49.1307C120.138 46.7045 121.677 45.0236 123.928 45.0236C126.133 45.0236 127.576 46.5459 127.576 48.8453V49.4003L121.582 49.4162C121.693 51.0495 122.549 51.9534 124.024 51.9534C125.181 51.9534 125.942 51.4777 126.196 50.5897H127.592C127.211 52.2547 125.911 53.1903 123.992 53.1903ZM123.928 46.2763C122.628 46.2763 121.804 47.0534 121.613 48.4171H126.085C126.085 47.1327 125.245 46.2763 123.928 46.2763ZM131.352 53H129.861V46.4984H128.339V45.2456H129.861V42.8194H131.352V45.2456H132.874V46.4984H131.352V53ZM136.386 53.1903C134.721 53.1903 133.738 52.2547 133.738 50.8434C133.738 49.4162 134.801 48.5281 136.624 48.3854L139.066 48.1951V47.9731C139.066 46.6728 138.289 46.2129 137.243 46.2129C135.99 46.2129 135.276 46.7679 135.276 47.7035H133.976C133.976 46.0861 135.308 45.0236 137.306 45.0236C139.225 45.0236 140.525 46.0385 140.525 48.1317V53H139.257L139.098 51.7473C138.702 52.6353 137.639 53.1903 136.386 53.1903ZM136.815 52.0327C138.226 52.0327 139.082 51.113 139.082 49.654V49.2417L137.1 49.4003C135.784 49.5272 135.245 50.0346 135.245 50.7958C135.245 51.6204 135.847 52.0327 136.815 52.0327ZM143.319 43.4061C142.78 43.4061 142.336 42.9621 142.336 42.4229C142.336 41.8679 142.78 41.4397 143.319 41.4397C143.858 41.4397 144.302 41.8679 144.302 42.4229C144.302 42.9621 143.858 43.4061 143.319 43.4061ZM142.59 53V45.2456H144.08V53H142.59ZM147.767 53H146.276V41.3287H147.767V53ZM149.327 50.7482H150.754C150.754 51.5411 151.357 52.0169 152.34 52.0169C153.386 52.0169 153.989 51.5887 153.989 50.8751C153.989 50.3518 153.735 50.0346 152.926 49.8285L151.563 49.5113C150.183 49.1783 149.533 48.4964 149.533 47.3547C149.533 45.9275 150.738 45.0236 152.451 45.0236C154.147 45.0236 155.258 45.9751 155.289 47.4498H153.862C153.83 46.6728 153.307 46.1812 152.403 46.1812C151.468 46.1812 150.944 46.5935 150.944 47.3071C150.944 47.8304 151.325 48.1793 152.086 48.3696L153.45 48.7026C154.766 49.0197 155.416 49.6223 155.416 50.7799C155.416 52.2547 154.147 53.1903 152.308 53.1903C150.484 53.1903 149.327 52.223 149.327 50.7482Z" fill="#0062F2"/>
<path d="M48.7051 302.543H45.7989V306.346H44.7579V295.993H48.7051C50.7003 295.993 51.9582 297.295 51.9582 299.247C51.9582 301.126 50.6859 302.543 48.7051 302.543ZM48.5605 296.933H45.7989V301.603H48.5027C50.0063 301.603 50.8738 300.649 50.8738 299.232C50.8738 297.801 49.9919 296.933 48.5605 296.933ZM55.1496 306.519C53.6604 306.519 52.7784 305.681 52.7784 304.452C52.7784 303.165 53.7616 302.355 55.3954 302.225L57.7088 302.037V301.806C57.7088 300.432 56.8846 299.998 55.8581 299.998C54.6436 299.998 53.9206 300.548 53.9206 301.488H53.0098C53.0098 300.071 54.1664 299.16 55.887 299.16C57.5064 299.16 58.692 299.97 58.692 301.82V306.346H57.8534L57.7232 305.117C57.2895 305.999 56.3352 306.519 55.1496 306.519ZM55.381 305.71C56.8557 305.71 57.7088 304.683 57.7088 303.165V302.789L55.6412 302.948C54.3255 303.064 53.7905 303.642 53.7905 304.423C53.7905 305.276 54.4267 305.71 55.381 305.71ZM59.8301 309.396V308.572H60.5964C61.2037 308.572 61.8109 308.529 62.1579 307.589L62.4616 306.765L59.6277 299.348H60.6832L62.9387 305.449L65.1509 299.348H66.1774L62.9676 307.951C62.5628 309.049 61.8832 309.498 60.8856 309.498C60.4663 309.498 60.1482 309.469 59.8301 309.396ZM68.3419 306.346H67.3443V299.348H68.2118L68.3274 300.345C68.6744 299.608 69.4552 299.16 70.4384 299.16C71.5372 299.16 72.3614 299.738 72.6939 300.649C73.012 299.738 73.8651 299.16 74.9928 299.16C76.511 299.16 77.5086 300.143 77.5086 301.762V306.346H76.5399V301.965C76.5399 300.765 75.8748 300.056 74.8049 300.056C73.6337 300.056 72.9397 300.938 72.9397 302.023V306.346H71.9565V301.95C71.9565 300.765 71.277 300.071 70.2215 300.071C69.0504 300.071 68.3419 300.938 68.3419 302.008V306.346ZM82.4505 306.519C80.3974 306.519 79.0238 305.044 79.0238 302.847C79.0238 300.664 80.3829 299.16 82.3782 299.16C84.2723 299.16 85.5591 300.504 85.5591 302.485V302.977H79.9925C80.0648 304.683 80.9613 305.666 82.4649 305.666C83.6072 305.666 84.3445 305.175 84.6048 304.249H85.5591C85.1831 305.724 84.0988 306.519 82.4505 306.519ZM82.3782 300.013C81.0625 300.013 80.1949 300.88 80.0214 302.254H84.5614C84.5614 300.909 83.6939 300.013 82.3782 300.013ZM88.1518 306.346H87.1541V299.348H88.0216L88.1662 300.562C88.6289 299.666 89.5543 299.16 90.5663 299.16C92.4893 299.16 93.2846 300.302 93.2846 302.066V306.346H92.2869V302.283C92.2869 300.649 91.5495 300.071 90.3928 300.071C88.9615 300.071 88.1518 301.112 88.1518 302.688V306.346ZM96.8778 306.346H95.8946V300.186H94.4922V299.348H95.8946V297.136H96.8778V299.348H98.2803V300.186H96.8778V306.346ZM105.599 306.519C104.11 306.519 103.228 305.681 103.228 304.452C103.228 303.165 104.211 302.355 105.845 302.225L108.158 302.037V301.806C108.158 300.432 107.334 299.998 106.308 299.998C105.093 299.998 104.37 300.548 104.37 301.488H103.459C103.459 300.071 104.616 299.16 106.337 299.16C107.956 299.16 109.141 299.97 109.141 301.82V306.346H108.303L108.173 305.117C107.739 305.999 106.785 306.519 105.599 306.519ZM105.83 305.71C107.305 305.71 108.158 304.683 108.158 303.165V302.789L106.091 302.948C104.775 303.064 104.24 303.642 104.24 304.423C104.24 305.276 104.876 305.71 105.83 305.71ZM112.141 306.346H111.143V299.348H112.011L112.127 300.345C112.474 299.608 113.254 299.16 114.238 299.16C115.336 299.16 116.161 299.738 116.493 300.649C116.811 299.738 117.664 299.16 118.792 299.16C120.31 299.16 121.308 300.143 121.308 301.762V306.346H120.339V301.965C120.339 300.765 119.674 300.056 118.604 300.056C117.433 300.056 116.739 300.938 116.739 302.023V306.346H115.756V301.95C115.756 300.765 115.076 300.071 114.021 300.071C112.85 300.071 112.141 300.938 112.141 302.008V306.346ZM122.823 302.847C122.823 300.707 124.327 299.16 126.38 299.16C128.433 299.16 129.937 300.707 129.937 302.847C129.937 304.972 128.433 306.519 126.38 306.519C124.327 306.519 122.823 304.972 122.823 302.847ZM123.835 302.832C123.835 304.481 124.876 305.623 126.38 305.623C127.869 305.623 128.924 304.481 128.924 302.832C128.924 301.213 127.869 300.056 126.38 300.056C124.876 300.056 123.835 301.213 123.835 302.832ZM136.279 299.348H137.276V306.346H136.409L136.279 305.16C135.888 305.97 134.92 306.519 133.821 306.519C132.172 306.519 131.276 305.391 131.276 303.685V299.333H132.288V303.367C132.288 305.03 133.026 305.623 134.139 305.623C135.483 305.623 136.279 304.726 136.279 303.064V299.348ZM140.352 306.346H139.354V299.348H140.222L140.367 300.562C140.829 299.666 141.755 299.16 142.767 299.16C144.69 299.16 145.485 300.302 145.485 302.066V306.346H144.487V302.283C144.487 300.649 143.75 300.071 142.593 300.071C141.162 300.071 140.352 301.112 140.352 302.688V306.346ZM149.078 306.346H148.095V300.186H146.693V299.348H148.095V297.136H149.078V299.348H150.481V300.186H149.078V306.346ZM152.777 300.967C152.286 300.967 151.867 300.548 151.867 300.071C151.867 299.579 152.286 299.174 152.777 299.174C153.269 299.174 153.688 299.579 153.688 300.071C153.688 300.548 153.269 300.967 152.777 300.967ZM152.777 306.505C152.286 306.505 151.867 306.1 151.867 305.623C151.867 305.131 152.286 304.712 152.777 304.712C153.269 304.712 153.688 305.131 153.688 305.623C153.688 306.1 153.269 306.505 152.777 306.505Z" fill="#142641"/>
<path d="M169.662 309.054V307.623C167.466 307.49 166.019 306.243 165.919 304.296H167.583C167.616 305.361 168.398 306.06 169.662 306.193V302.05L169.064 301.917C167.1 301.468 166.085 300.37 166.085 298.656C166.085 296.759 167.5 295.412 169.662 295.229V293.781H170.727V295.212C172.74 295.395 174.021 296.626 174.138 298.556H172.524C172.458 297.491 171.809 296.809 170.727 296.66V300.786L171.376 300.935C173.373 301.385 174.338 302.433 174.338 304.096C174.338 306.076 172.923 307.407 170.727 307.607V309.054H169.662ZM169.396 300.469L169.662 300.536V296.66C168.431 296.826 167.683 297.541 167.683 298.606C167.683 299.571 168.232 300.187 169.396 300.469ZM171.043 302.383L170.727 302.316V306.159C171.975 305.993 172.74 305.278 172.74 304.229C172.74 303.265 172.191 302.649 171.043 302.383ZM178.1 296.876H175.571V295.412H179.664V307.44H178.1V296.876ZM185.308 301.218H184.11V300.137L187.521 296.859H182.114V295.412H189.584V296.726L186.29 299.871C188.336 300.12 189.883 301.501 189.883 303.664C189.883 306.093 188.053 307.64 185.608 307.64C183.245 307.64 181.548 306.193 181.548 303.697H183.162C183.162 305.261 184.127 306.176 185.641 306.176C187.205 306.176 188.22 305.178 188.22 303.631C188.22 302.183 187.221 301.218 185.308 301.218ZM191.32 301.434C191.32 297.708 193.25 295.179 196.278 295.179C199.289 295.179 201.219 297.708 201.219 301.434C201.219 305.178 199.373 307.657 196.278 307.657C193.167 307.657 191.32 305.178 191.32 301.434ZM192.934 301.434C192.934 304.396 194.165 306.193 196.278 306.193C198.391 306.193 199.606 304.396 199.606 301.434C199.606 298.44 198.391 296.643 196.278 296.643C194.165 296.643 192.934 298.44 192.934 301.434Z" fill="#142641"/>
<path d="M45.9526 96.5523C44.6584 96.5523 43.7783 95.5881 43.7783 94.1644C43.7783 92.7407 44.6713 91.77 45.9785 91.77C46.9751 91.77 47.7582 92.3718 47.9458 93.2907H47.4475C47.2534 92.6242 46.6839 92.2165 45.9591 92.2165C44.9431 92.2165 44.2636 92.993 44.2636 94.1644C44.2636 95.3292 44.9431 96.1058 45.9591 96.1058C46.6904 96.1058 47.2728 95.711 47.4734 95.0898H47.9717C47.7582 95.9634 46.9492 96.5523 45.9526 96.5523ZM49.0788 96.4811H48.6064L50.3084 91.8476H50.8843L52.6057 96.4811H52.1204L51.6674 95.2516H49.5318L49.0788 96.4811ZM50.5349 92.5012L49.6742 94.8439H51.5185L50.6514 92.5012C50.6319 92.4365 50.5996 92.3589 50.5931 92.3136C50.5866 92.3524 50.5608 92.4365 50.5349 92.5012ZM54.1687 96.4811H53.7028V91.8476H55.4307C56.369 91.8476 56.9385 92.3653 56.9385 93.1872C56.9385 93.8537 56.589 94.3197 55.9937 94.4815L56.9838 96.4811H56.4661L55.5213 94.5591H54.1687V96.4811ZM54.1687 92.2683V94.1385H55.4436C56.0843 94.1385 56.4596 93.789 56.4596 93.2001C56.4596 92.5983 56.0648 92.2683 55.4307 92.2683H54.1687ZM59.7059 96.4811H58.2952V91.8476H59.693C61.0908 91.8476 62.0227 92.7795 62.0227 94.1644C62.0227 95.5492 61.0973 96.4811 59.7059 96.4811ZM59.6736 92.2747H58.7611V96.054H59.6865C60.819 96.054 61.5438 95.3163 61.5438 94.1644C61.5438 93.006 60.819 92.2747 59.6736 92.2747ZM63.7833 96.4811H63.3173V91.8476H63.7833V93.912H66.2877V91.8476H66.7471V96.4811H66.2877V94.3456H63.7833V96.4811ZM72.4619 94.1644C72.4619 95.5686 71.5494 96.5588 70.2551 96.5588C68.9544 96.5588 68.0484 95.5686 68.0484 94.1644C68.0484 92.7601 68.9608 91.7635 70.2551 91.7635C71.5559 91.7635 72.4619 92.7536 72.4619 94.1644ZM71.983 94.1644C71.983 93.006 71.2776 92.2165 70.2551 92.2165C69.2326 92.2165 68.5337 93.006 68.5337 94.1644C68.5337 95.3227 69.2326 96.1122 70.2551 96.1122C71.2776 96.1122 71.983 95.3163 71.983 94.1644ZM74.2256 91.8476V96.054H76.3547V96.4811H73.7597V91.8476H74.2256ZM78.916 96.4811H77.5053V91.8476H78.9031C80.3009 91.8476 81.2328 92.7795 81.2328 94.1644C81.2328 95.5492 80.3074 96.4811 78.916 96.4811ZM78.8837 92.2747H77.9712V96.054H78.8966C80.0291 96.054 80.7539 95.3163 80.7539 94.1644C80.7539 93.006 80.0291 92.2747 78.8837 92.2747ZM85.3036 96.4811H82.5274V91.8476H85.2971V92.2747H82.9933V93.9443H85.0836V94.365H82.9933V96.054H85.3036V96.4811ZM87.1686 96.4811H86.7027V91.8476H88.4305C89.3689 91.8476 89.9384 92.3653 89.9384 93.1872C89.9384 93.8537 89.5889 94.3197 88.9935 94.4815L89.9837 96.4811H89.4659L88.5211 94.5591H87.1686V96.4811ZM87.1686 92.2683V94.1385H88.4435C89.0841 94.1385 89.4595 93.789 89.4595 93.2001C89.4595 92.5983 89.0647 92.2683 88.4305 92.2683H87.1686ZM94.0088 96.4811H93.5429V91.8476H94.0153L96.565 95.7045V91.8476H97.0244V96.4811H96.565L94.0088 92.6242V96.4811ZM98.6092 96.4811H98.1368L99.8388 91.8476H100.415L102.136 96.4811H101.651L101.198 95.2516H99.0622L98.6092 96.4811ZM100.065 92.5012L99.2046 94.8439H101.049L100.182 92.5012C100.162 92.4365 100.13 92.3589 100.124 92.3136C100.117 92.3524 100.091 92.4365 100.065 92.5012ZM103.693 96.4811H103.233V91.8476H103.693L105.382 95.931L107.071 91.8476H107.537V96.4811H107.077V94.2808C107.077 93.4719 107.09 93.116 107.116 92.7989L105.608 96.4811H105.162L103.654 92.8183C103.68 92.993 103.693 93.5043 103.693 94.2097V96.4811ZM111.891 96.4811H109.115V91.8476H111.885V92.2747H109.581V93.9443H111.671V94.365H109.581V96.054H111.891V96.4811Z" fill="#142641"/>
<path d="M68.644 116.261C68.644 114.794 69.8168 113.829 71.5761 113.829C73.1521 113.829 74.1906 114.709 74.325 116.175H73.4331C73.3354 115.185 72.6635 114.623 71.5639 114.623C70.33 114.623 69.5236 115.259 69.5236 116.248C69.5236 117.018 69.9757 117.507 70.892 117.739L72.3947 118.105C73.763 118.435 74.4716 119.217 74.4716 120.402C74.4716 121.917 73.2987 122.882 71.4906 122.882C69.7924 122.882 68.644 121.99 68.534 120.561H69.4381C69.487 121.477 70.2933 122.076 71.4906 122.076C72.7734 122.076 73.592 121.453 73.592 120.451C73.592 119.669 73.1521 119.156 72.2114 118.936L70.7331 118.57C69.3648 118.24 68.644 117.458 68.644 116.261ZM78.4236 122.882C77.1652 122.882 76.4199 122.174 76.4199 121.135C76.4199 120.048 77.2507 119.364 78.6313 119.254L80.586 119.095V118.899C80.586 117.739 79.8896 117.372 79.0222 117.372C77.996 117.372 77.3851 117.837 77.3851 118.631H76.6154C76.6154 117.433 77.5928 116.664 79.0466 116.664C80.415 116.664 81.4168 117.348 81.4168 118.912V122.736H80.7082L80.5982 121.697C80.2317 122.442 79.4254 122.882 78.4236 122.882ZM78.619 122.198C79.8652 122.198 80.586 121.331 80.586 120.048V119.73L78.8389 119.865C77.7272 119.962 77.2751 120.451 77.2751 121.111C77.2751 121.832 77.8127 122.198 78.619 122.198ZM84.8066 122.736H83.9636V116.823H84.6966L84.7943 117.665C85.0876 117.042 85.7473 116.664 86.578 116.664C87.5066 116.664 88.2029 117.152 88.4839 117.922C88.7527 117.152 89.4735 116.664 90.4265 116.664C91.7093 116.664 92.5522 117.494 92.5522 118.863V122.736H91.7337V119.034C91.7337 118.02 91.1717 117.421 90.2676 117.421C89.278 117.421 88.6916 118.166 88.6916 119.083V122.736H87.8609V119.022C87.8609 118.02 87.2866 117.433 86.3948 117.433C85.4052 117.433 84.8066 118.166 84.8066 119.07V122.736ZM95.1032 125.313V116.823H95.8362L95.9217 118.02C96.3371 117.104 97.1679 116.664 98.1574 116.664C99.8679 116.664 100.894 117.971 100.894 119.755C100.894 121.538 99.9045 122.882 98.1574 122.882C97.1556 122.882 96.3615 122.455 95.9461 121.599V125.313H95.1032ZM95.9584 119.779C95.9584 121.135 96.7158 122.125 98.0108 122.125C99.2936 122.125 100.039 121.135 100.039 119.779C100.039 118.411 99.2936 117.433 98.0108 117.433C96.7158 117.433 95.9584 118.411 95.9584 119.779ZM103.973 122.736H103.13V113.829H103.973V122.736ZM109.101 122.882C107.366 122.882 106.205 121.636 106.205 119.779C106.205 117.934 107.354 116.664 109.04 116.664C110.64 116.664 111.727 117.8 111.727 119.474V119.889H107.024C107.085 121.331 107.842 122.161 109.113 122.161C110.078 122.161 110.701 121.746 110.921 120.964H111.727C111.41 122.21 110.494 122.882 109.101 122.882ZM109.04 117.385C107.928 117.385 107.195 118.118 107.048 119.278H110.884C110.884 118.142 110.151 117.385 109.04 117.385ZM117.832 116.261C117.832 114.794 119.005 113.829 120.764 113.829C122.34 113.829 123.379 114.709 123.513 116.175H122.621C122.523 115.185 121.851 114.623 120.752 114.623C119.518 114.623 118.712 115.259 118.712 116.248C118.712 117.018 119.164 117.507 120.08 117.739L121.583 118.105C122.951 118.435 123.66 119.217 123.66 120.402C123.66 121.917 122.487 122.882 120.679 122.882C118.98 122.882 117.832 121.99 117.722 120.561H118.626C118.675 121.477 119.481 122.076 120.679 122.076C121.961 122.076 122.78 121.453 122.78 120.451C122.78 119.669 122.34 119.156 121.399 118.936L119.921 118.57C118.553 118.24 117.832 117.458 117.832 116.261ZM125.913 125.313V116.823H126.646L126.732 118.02C127.147 117.104 127.978 116.664 128.968 116.664C130.678 116.664 131.704 117.971 131.704 119.755C131.704 121.538 130.715 122.882 128.968 122.882C127.966 122.882 127.172 122.455 126.756 121.599V125.313H125.913ZM126.769 119.779C126.769 121.135 127.526 122.125 128.821 122.125C130.104 122.125 130.849 121.135 130.849 119.779C130.849 118.411 130.104 117.433 128.821 117.433C127.526 117.433 126.769 118.411 126.769 119.779ZM136.383 122.882C134.648 122.882 133.488 121.636 133.488 119.779C133.488 117.934 134.636 116.664 136.322 116.664C137.923 116.664 139.01 117.8 139.01 119.474V119.889H134.306C134.367 121.331 135.125 122.161 136.395 122.161C137.361 122.161 137.984 121.746 138.204 120.964H139.01C138.692 122.21 137.776 122.882 136.383 122.882ZM136.322 117.385C135.21 117.385 134.477 118.118 134.331 119.278H138.167C138.167 118.142 137.434 117.385 136.322 117.385ZM140.798 119.791C140.798 117.934 141.934 116.664 143.656 116.664C145.025 116.664 146.027 117.458 146.259 118.68H145.416C145.196 117.861 144.487 117.409 143.669 117.409C142.471 117.409 141.628 118.325 141.628 119.779C141.628 121.184 142.41 122.125 143.608 122.125C144.487 122.125 145.196 121.636 145.428 120.879H146.283C146.002 122.088 144.951 122.882 143.608 122.882C141.934 122.882 140.798 121.648 140.798 119.791ZM148.831 115.198C148.489 115.198 148.208 114.917 148.208 114.575C148.208 114.232 148.489 113.939 148.831 113.939C149.173 113.939 149.466 114.232 149.466 114.575C149.466 114.917 149.173 115.198 148.831 115.198ZM148.415 122.736V116.823H149.258V122.736H148.415ZM152.714 122.736H151.871V116.823H152.605L152.702 117.665C152.995 117.042 153.655 116.664 154.486 116.664C155.414 116.664 156.111 117.152 156.392 117.922C156.661 117.152 157.381 116.664 158.334 116.664C159.617 116.664 160.46 117.494 160.46 118.863V122.736H159.642V119.034C159.642 118.02 159.08 117.421 158.176 117.421C157.186 117.421 156.6 118.166 156.6 119.083V122.736H155.769V119.022C155.769 118.02 155.195 117.433 154.303 117.433C153.313 117.433 152.714 118.166 152.714 119.07V122.736ZM165.491 122.882C163.756 122.882 162.596 121.636 162.596 119.779C162.596 117.934 163.744 116.664 165.43 116.664C167.031 116.664 168.118 117.8 168.118 119.474V119.889H163.414C163.475 121.331 164.233 122.161 165.503 122.161C166.469 122.161 167.092 121.746 167.312 120.964H168.118C167.8 122.21 166.884 122.882 165.491 122.882ZM165.43 117.385C164.318 117.385 163.585 118.118 163.439 119.278H167.275C167.275 118.142 166.542 117.385 165.43 117.385ZM171.164 122.736H170.321V116.823H171.054L171.176 117.849C171.567 117.091 172.349 116.664 173.204 116.664C174.829 116.664 175.501 117.629 175.501 119.119V122.736H174.658V119.303C174.658 117.922 174.035 117.433 173.057 117.433C171.848 117.433 171.164 118.313 171.164 119.645V122.736Z" fill="#142641"/>
<path d="M43.5 131H214.5" stroke="#0062F2" stroke-width="0.621872"/>
<path d="M45.9526 173.664C44.6584 173.664 43.7783 172.7 43.7783 171.277C43.7783 169.853 44.6713 168.882 45.9785 168.882C46.9751 168.882 47.7582 169.484 47.9458 170.403H47.4475C47.2534 169.736 46.6839 169.329 45.9591 169.329C44.9431 169.329 44.2636 170.105 44.2636 171.277C44.2636 172.441 44.9431 173.218 45.9591 173.218C46.6904 173.218 47.2728 172.823 47.4734 172.202H47.9717C47.7582 173.076 46.9492 173.664 45.9526 173.664ZM49.0788 173.593H48.6064L50.3084 168.96H50.8843L52.6057 173.593H52.1204L51.6674 172.364H49.5318L49.0788 173.593ZM50.5349 169.613L49.6742 171.956H51.5185L50.6514 169.613C50.6319 169.549 50.5996 169.471 50.5931 169.426C50.5866 169.465 50.5608 169.549 50.5349 169.613ZM54.1687 173.593H53.7028V168.96H55.4307C56.369 168.96 56.9385 169.478 56.9385 170.299C56.9385 170.966 56.589 171.432 55.9937 171.594L56.9838 173.593H56.4661L55.5213 171.671H54.1687V173.593ZM54.1687 169.38V171.251H55.4436C56.0843 171.251 56.4596 170.901 56.4596 170.312C56.4596 169.71 56.0648 169.38 55.4307 169.38H54.1687ZM59.7059 173.593H58.2952V168.96H59.693C61.0908 168.96 62.0227 169.892 62.0227 171.277C62.0227 172.661 61.0973 173.593 59.7059 173.593ZM59.6736 169.387H58.7611V173.166H59.6865C60.819 173.166 61.5438 172.428 61.5438 171.277C61.5438 170.118 60.819 169.387 59.6736 169.387ZM66.031 173.593H65.5651V168.96H66.0375L68.5872 172.817V168.96H69.0467V173.593H68.5872L66.031 169.736V173.593ZM70.5991 171.982V168.96H71.065V171.963C71.065 172.778 71.5116 173.218 72.3205 173.218C73.11 173.218 73.5565 172.765 73.5565 171.963V168.96H74.0225V171.982C74.0225 173.03 73.3753 173.671 72.3205 173.671C71.2462 173.671 70.5991 173.037 70.5991 171.982ZM76.0309 173.593H75.5714V168.96H76.0309L77.7199 173.043L79.409 168.96H79.8749V173.593H79.4154V171.393C79.4154 170.584 79.4284 170.228 79.4543 169.911L77.9464 173.593H77.4999L75.9921 169.931C76.018 170.105 76.0309 170.616 76.0309 171.322V173.593ZM81.453 173.593V168.96H83.1485C84.0416 168.96 84.5917 169.413 84.5917 170.157C84.5917 170.701 84.3522 171.069 83.8733 171.257C84.4105 171.432 84.6822 171.807 84.6822 172.377C84.6822 173.121 84.1257 173.593 83.2456 173.593H81.453ZM83.1421 169.374H81.919V171.069H83.2003C83.7827 171.069 84.1128 170.746 84.1128 170.196C84.1128 169.678 83.7633 169.374 83.1421 169.374ZM83.2456 171.477H81.919V173.173H83.2456C83.8539 173.173 84.2098 172.856 84.2098 172.318C84.2098 171.794 83.8474 171.477 83.2456 171.477ZM88.7521 173.593H85.9759V168.96H88.7457V169.387H86.4419V171.057H88.5321V171.477H86.4419V173.166H88.7521V173.593ZM90.6171 173.593H90.1512V168.96H91.8791C92.8174 168.96 93.3869 169.478 93.3869 170.299C93.3869 170.966 93.0374 171.432 92.4421 171.594L93.4322 173.593H92.9145L91.9697 171.671H90.6171V173.593ZM90.6171 169.38V171.251H91.892C92.5327 171.251 92.908 170.901 92.908 170.312C92.908 169.71 92.5132 169.38 91.8791 169.38H90.6171Z" fill="#142641"/>
<path d="M70.8916 196.246C68.8908 196.246 67.6126 194.996 67.6126 193.037H68.613C68.613 194.468 69.4883 195.329 70.9055 195.329C72.406 195.329 73.3786 194.329 73.3786 192.856C73.3786 191.467 72.4755 190.369 70.9055 190.369C69.9885 190.369 69.1548 190.786 68.613 191.383L67.821 191.133L69.0159 186.131H73.8232V187.048H69.7384L68.9881 190.175C69.5439 189.73 70.2663 189.48 71.0444 189.48C73.1146 189.48 74.3929 190.967 74.3929 192.828C74.3929 194.829 72.9757 196.246 70.8916 196.246ZM82.8128 193.968H81.6457V196.08H80.6731V193.968H75.4489V193.079L80.3118 186.131H81.6457V193.079H82.8128V193.968ZM76.5327 193.079H80.6731V187.16L76.5327 193.079ZM84.2988 191.106C84.2988 188.021 85.8132 185.937 88.2864 185.937C90.7456 185.937 92.2601 188.021 92.2601 191.106C92.2601 194.204 90.7734 196.26 88.2864 196.26C85.7854 196.26 84.2988 194.204 84.2988 191.106ZM85.2853 191.106C85.2853 193.69 86.3829 195.357 88.2864 195.357C90.1899 195.357 91.2875 193.69 91.2875 191.106C91.2875 188.507 90.1899 186.854 88.2864 186.854C86.3829 186.854 85.2853 188.507 85.2853 191.106ZM100.869 193.968H99.702V196.08H98.7294V193.968H93.5052V193.079L98.3681 186.131H99.702V193.079H100.869V193.968ZM94.5889 193.079H98.7294V187.16L94.5889 193.079ZM108.89 190.744H108.098V190.05L111.169 187.021H106.403V186.131H112.433V186.937L109.46 189.897C111.321 189.994 112.655 191.175 112.655 192.981C112.655 194.954 111.21 196.246 109.196 196.246C107.237 196.246 105.917 195.038 105.917 193.051H106.903C106.903 194.482 107.792 195.343 109.196 195.343C110.682 195.343 111.641 194.398 111.641 192.953C111.641 191.592 110.668 190.744 108.89 190.744ZM115.092 189.48L117.579 186.131H118.746L116.134 189.591C116.606 189.355 117.037 189.258 117.495 189.258C119.566 189.258 120.941 190.772 120.941 192.717C120.941 194.76 119.399 196.246 117.412 196.246C115.411 196.246 113.841 194.704 113.841 192.717C113.841 191.564 114.161 190.758 115.092 189.48ZM114.856 192.731C114.856 194.246 115.898 195.343 117.412 195.343C118.885 195.343 119.941 194.246 119.941 192.731C119.941 191.217 118.885 190.133 117.412 190.133C115.898 190.133 114.856 191.217 114.856 192.731ZM128.525 196.08H121.967V195.288L125.149 192.509C126.983 190.911 127.455 190.216 127.455 189.035C127.455 187.688 126.649 186.868 125.329 186.868C123.954 186.868 123.051 187.868 123.009 189.41H122.009C122.064 187.326 123.384 185.951 125.343 185.951C127.219 185.951 128.469 187.16 128.469 188.98C128.469 190.425 127.816 191.383 125.829 193.12L123.509 195.149H128.525V196.08ZM136.284 196.08H129.726V195.288L132.908 192.509C134.742 190.911 135.214 190.216 135.214 189.035C135.214 187.688 134.409 186.868 133.089 186.868C131.713 186.868 130.81 187.868 130.768 189.41H129.768C129.824 187.326 131.144 185.951 133.103 185.951C134.978 185.951 136.229 187.16 136.229 188.98C136.229 190.425 135.576 191.383 133.589 193.12L131.269 195.149H136.284V196.08ZM147.801 196.08H141.243V195.288L144.424 192.509C146.258 190.911 146.731 190.216 146.731 189.035C146.731 187.688 145.925 186.868 144.605 186.868C143.229 186.868 142.326 187.868 142.285 189.41H141.284C141.34 187.326 142.66 185.951 144.619 185.951C146.495 185.951 147.745 187.16 147.745 188.98C147.745 190.425 147.092 191.383 145.105 193.12L142.785 195.149H147.801V196.08ZM155.56 196.08H149.002V195.288L152.184 192.509C154.018 190.911 154.49 190.216 154.49 189.035C154.49 187.688 153.684 186.868 152.364 186.868C150.989 186.868 150.086 187.868 150.044 189.41H149.044C149.099 187.326 150.419 185.951 152.378 185.951C154.254 185.951 155.505 187.16 155.505 188.98C155.505 190.425 154.852 191.383 152.865 193.12L150.544 195.149H155.56V196.08ZM163.635 193.968H162.468V196.08H161.496V193.968H156.272V193.079L161.134 186.131H162.468V193.079H163.635V193.968ZM157.355 193.079H161.496V187.16L157.355 193.079ZM166.003 189.48L168.49 186.131H169.657L167.045 189.591C167.517 189.355 167.948 189.258 168.406 189.258C170.476 189.258 171.852 190.772 171.852 192.717C171.852 194.76 170.31 196.246 168.323 196.246C166.322 196.246 164.752 194.704 164.752 192.717C164.752 191.564 165.072 190.758 166.003 189.48ZM165.766 192.731C165.766 194.246 166.808 195.343 168.323 195.343C169.796 195.343 170.852 194.246 170.852 192.731C170.852 191.217 169.796 190.133 168.323 190.133C166.808 190.133 165.766 191.217 165.766 192.731ZM184.119 193.968H182.952V196.08H181.979V193.968H176.755V193.079L181.618 186.131H182.952V193.079H184.119V193.968ZM177.839 193.079H181.979V187.16L177.839 193.079ZM192.543 193.968H191.376V196.08H190.403V193.968H185.179V193.079L190.042 186.131H191.376V193.079H192.543V193.968ZM186.263 193.079H190.403V187.16L186.263 193.079ZM194.029 191.106C194.029 188.021 195.544 185.937 198.017 185.937C200.476 185.937 201.99 188.021 201.99 191.106C201.99 194.204 200.504 196.26 198.017 196.26C195.516 196.26 194.029 194.204 194.029 191.106ZM195.016 191.106C195.016 193.69 196.113 195.357 198.017 195.357C199.92 195.357 201.018 193.69 201.018 191.106C201.018 188.507 199.92 186.854 198.017 186.854C196.113 186.854 195.016 188.507 195.016 191.106ZM205.195 187.035H203.166V186.131H206.153V196.08H205.195V187.035Z" fill="#142641"/>
<path d="M43.5 208H214.5" stroke="#0062F2" stroke-width="0.621872"/>
<path d="M46.8392 233.293H44.063V228.66H46.8327V229.087H44.5289V230.756H46.6192V231.177H44.5289V232.866H46.8392V233.293ZM49.3837 230.983L47.7659 228.66H48.316L49.1766 229.876C49.3967 230.187 49.5455 230.433 49.6555 230.64L51.0016 228.66H51.5387L49.9467 230.97L51.5646 233.293H51.008L50.1279 232.05C49.9726 231.83 49.785 231.546 49.6685 231.339L48.316 233.293H47.7724L49.3837 230.983ZM54.4204 231.591H53.1197V233.293H52.6537V228.66H54.4204C55.3135 228.66 55.8765 229.242 55.8765 230.116C55.8765 230.957 55.307 231.591 54.4204 231.591ZM54.3557 229.08H53.1197V231.17H54.3298C55.0028 231.17 55.3911 230.743 55.3911 230.109C55.3911 229.468 54.9964 229.08 54.3557 229.08ZM57.5477 228.66V233.293H57.0818V228.66H57.5477ZM59.5933 233.293H59.1274V228.66H60.8552C61.7936 228.66 62.363 229.177 62.363 229.999C62.363 230.666 62.0136 231.132 61.4182 231.293L62.4083 233.293H61.8906L60.9458 231.371H59.5933V233.293ZM59.5933 229.08V230.95H60.8682C61.5088 230.95 61.8842 230.601 61.8842 230.012C61.8842 229.41 61.4894 229.08 60.8552 229.08H59.5933ZM64.7182 231.358L63.1456 228.66H63.6698L64.8152 230.659C64.867 230.756 64.9058 230.834 64.9511 230.937C65.0094 230.821 65.0094 230.821 65.0935 230.659L66.226 228.66H66.7372L65.1841 231.358V233.293H64.7182V231.358ZM71.4777 233.293H70.067V228.66H71.4648C72.8626 228.66 73.7945 229.591 73.7945 230.976C73.7945 232.361 72.8691 233.293 71.4777 233.293ZM71.4454 229.087H70.5329V232.866H71.4583C72.5908 232.866 73.3156 232.128 73.3156 230.976C73.3156 229.818 72.5908 229.087 71.4454 229.087ZM74.9058 233.293H74.4334L76.1354 228.66H76.7114L78.4327 233.293H77.9474L77.4944 232.063H75.3588L74.9058 233.293ZM76.3619 229.313L75.5012 231.656H77.3455L76.4784 229.313C76.459 229.248 76.4266 229.171 76.4201 229.125C76.4137 229.164 76.3878 229.248 76.3619 229.313ZM78.6211 229.087V228.66H81.9409V229.087H80.5107V233.293H80.0448V229.087H78.6211ZM85.8114 233.293H83.0352V228.66H85.805V229.087H83.5012V230.756H85.5914V231.177H83.5012V232.866H85.8114V233.293Z" fill="#142641"/>
<path d="M143.684 233.364C142.39 233.364 141.51 232.4 141.51 230.976C141.51 229.553 142.403 228.582 143.71 228.582C144.707 228.582 145.49 229.184 145.677 230.103H145.179C144.985 229.436 144.415 229.028 143.691 229.028C142.675 229.028 141.995 229.805 141.995 230.976C141.995 232.141 142.675 232.918 143.691 232.918C144.422 232.918 145.004 232.523 145.205 231.902H145.703C145.49 232.775 144.681 233.364 143.684 233.364ZM148.11 233.293L146.337 228.66H146.836L148.072 231.882C148.169 232.135 148.259 232.387 148.363 232.711C148.46 232.374 148.576 232.05 148.648 231.876L149.877 228.66H150.356L148.596 233.293H148.11ZM152.709 233.293L150.936 228.66H151.434L152.67 231.882C152.767 232.135 152.858 232.387 152.961 232.711C153.059 232.374 153.175 232.05 153.246 231.876L154.476 228.66H154.955L153.194 233.293H152.709Z" fill="#142641"/>
<path d="M67.6265 250.805C67.6265 247.721 69.1409 245.637 71.6141 245.637C74.0733 245.637 75.5878 247.721 75.5878 250.805C75.5878 253.904 74.1011 255.96 71.6141 255.96C69.1131 255.96 67.6265 253.904 67.6265 250.805ZM68.613 250.805C68.613 253.39 69.7106 255.057 71.6141 255.057C73.5175 255.057 74.6152 253.39 74.6152 250.805C74.6152 248.207 73.5175 246.554 71.6141 246.554C69.7106 246.554 68.613 248.207 68.613 250.805ZM79.834 246.734H77.8055V245.831H80.7927V255.779H79.834V246.734ZM84.1483 255.779H83.2035L87.08 245.831H88.0526L84.1483 255.779ZM95.9997 255.779H89.4417V254.987L92.6235 252.209C94.4575 250.611 94.9299 249.916 94.9299 248.735C94.9299 247.387 94.124 246.568 92.8041 246.568C91.4286 246.568 90.5255 247.568 90.4838 249.11H89.4834C89.539 247.026 90.8589 245.651 92.818 245.651C94.6937 245.651 95.9442 246.859 95.9442 248.68C95.9442 250.125 95.2911 251.083 93.3043 252.82L90.984 254.849H95.9997V255.779ZM97.6074 245.831H104.374V246.748L100.456 255.779H99.4275L103.36 246.748H97.6074V245.831Z" fill="#142641"/>
<path d="M164.268 250.444H163.476V249.749L166.547 246.721H161.781V245.831H167.811V246.637L164.838 249.597C166.7 249.694 168.033 250.875 168.033 252.681C168.033 254.654 166.588 255.946 164.574 255.946C162.615 255.946 161.295 254.737 161.295 252.751H162.281C162.281 254.182 163.17 255.043 164.574 255.043C166.06 255.043 167.019 254.098 167.019 252.653C167.019 251.292 166.047 250.444 164.268 250.444ZM177.461 253.668H176.293V255.779H175.321V253.668H170.097V252.778L174.96 245.831H176.293V252.778H177.461V253.668ZM171.18 252.778H175.321V246.859L171.18 252.778ZM183.037 255.946C181.036 255.946 179.758 254.696 179.758 252.737H180.758C180.758 254.168 181.633 255.029 183.05 255.029C184.551 255.029 185.524 254.029 185.524 252.556C185.524 251.167 184.62 250.069 183.05 250.069C182.133 250.069 181.3 250.486 180.758 251.083L179.966 250.833L181.161 245.831H185.968V246.748H181.883L181.133 249.874C181.689 249.43 182.411 249.18 183.189 249.18C185.26 249.18 186.538 250.666 186.538 252.528C186.538 254.529 185.121 255.946 183.037 255.946Z" fill="#142641"/>
<g clip-path="url(#clip0_0_1)">
<path d="M51.5 116.726C52.9728 116.726 54.1667 115.532 54.1667 114.059C54.1667 112.586 52.9728 111.392 51.5 111.392C50.0272 111.392 48.8333 112.586 48.8333 114.059C48.8333 115.532 50.0272 116.726 51.5 116.726Z" stroke="#0062F2" stroke-linecap="round" stroke-linejoin="round"/>
<path d="M47.5 123.392V122.059C47.5 121.352 47.781 120.674 48.281 120.173C48.7811 119.673 49.4594 119.392 50.1667 119.392H52.8333C53.5406 119.392 54.2189 119.673 54.719 120.173C55.219 120.674 55.5 121.352 55.5 122.059V123.392" stroke="#0062F2" stroke-linecap="round" stroke-linejoin="round"/>
</g>
<g clip-path="url(#clip1_0_1)">
<path d="M55.5 187.726H47.5C46.3954 187.726 45.5 188.621 45.5 189.726V195.059C45.5 196.164 46.3954 197.059 47.5 197.059H55.5C56.6046 197.059 57.5 196.164 57.5 195.059V189.726C57.5 188.621 56.6046 187.726 55.5 187.726Z" stroke="#0062F2" stroke-linecap="round" stroke-linejoin="round"/>
<path d="M45.5 191.059H57.5" stroke="#0062F2" stroke-linecap="round" stroke-linejoin="round"/>
<path d="M48.1666 194.392H48.1741" stroke="#0062F2" stroke-linecap="round" stroke-linejoin="round"/>
<path d="M50.8334 194.392H52.1668" stroke="#0062F2" stroke-linecap="round" stroke-linejoin="round"/>
</g>
<path d="M43.6094 268.58H111.393" stroke="#0062F2" stroke-width="0.621872"/>
<path d="M142.5 269H214.5" stroke="#0062F2" stroke-width="0.621872"/>
<rect x="62.5" y="336.392" width="141.787" height="43.0869" rx="21.5434" fill="#0062F2"/>
<path d="M121.877 356.482C123.921 356.482 125.265 355.096 125.265 353.122C125.265 351.12 123.935 349.776 121.877 349.776H117.831V360.01H119.623V356.482H121.877ZM121.527 351.372C122.717 351.372 123.389 351.988 123.389 353.108C123.389 354.228 122.731 354.886 121.499 354.886H119.623V351.372H121.527ZM128.305 360.192C129.383 360.192 130.321 359.702 130.615 358.988L130.741 360.01H132.239V355.81C132.239 353.892 131.091 352.884 129.229 352.884C127.353 352.884 126.121 353.864 126.121 355.362H127.577C127.577 354.634 128.137 354.214 129.145 354.214C130.013 354.214 130.573 354.592 130.573 355.53V355.684L128.501 355.838C126.863 355.964 125.939 356.762 125.939 358.036C125.939 359.338 126.835 360.192 128.305 360.192ZM128.865 358.904C128.095 358.904 127.675 358.596 127.675 357.966C127.675 357.406 128.081 357.056 129.145 356.958L130.587 356.846V357.21C130.587 358.274 129.915 358.904 128.865 358.904ZM133.124 363.216C133.502 363.314 133.922 363.37 134.398 363.37C135.532 363.37 136.26 362.838 136.778 361.55L140.166 353.094H138.402L136.526 358.134L134.748 353.094H132.942L135.728 360.304L135.532 360.822C135.238 361.634 134.818 361.788 134.146 361.788H133.124V363.216Z" fill="white"/>
<g clip-path="url(#clip2_0_1)">
<path d="M55.4999 246.726H47.4999C46.7635 246.726 46.1666 247.323 46.1666 248.059V256.059C46.1666 256.795 46.7635 257.392 47.4999 257.392H55.4999C56.2363 257.392 56.8332 256.795 56.8332 256.059V248.059C56.8332 247.323 56.2363 246.726 55.4999 246.726Z" stroke="#0062F2" stroke-linecap="round" stroke-linejoin="round"/>
<path d="M54.1666 245.392V248.059" stroke="#0062F2" stroke-linecap="round" stroke-linejoin="round"/>
<path d="M48.8334 245.392V248.059" stroke="#0062F2" stroke-linecap="round" stroke-linejoin="round"/>
<path d="M46.1666 250.726H56.8332" stroke="#0062F2" stroke-linecap="round" stroke-linejoin="round"/>
<path d="M50.1668 253.392H48.8334V254.726H50.1668V253.392Z" stroke="#0062F2" stroke-linecap="round" stroke-linejoin="round"/>
</g>
<g clip-path="url(#clip3_0_1)">
<path d="M148.833 250.333H142.167C141.43 250.333 140.833 250.93 140.833 251.667V255.667C140.833 256.403 141.43 257 142.167 257H148.833C149.57 257 150.167 256.403 150.167 255.667V251.667C150.167 250.93 149.57 250.333 148.833 250.333Z" stroke="#0062F2" stroke-linecap="round" stroke-linejoin="round"/>
<path d="M145.5 254.333C145.868 254.333 146.167 254.035 146.167 253.667C146.167 253.299 145.868 253 145.5 253C145.132 253 144.833 253.299 144.833 253.667C144.833 254.035 145.132 254.333 145.5 254.333Z" stroke="#0062F2" stroke-linecap="round" stroke-linejoin="round"/>
<path d="M142.833 250.333V247.667C142.833 246.959 143.114 246.281 143.614 245.781C144.115 245.281 144.793 245 145.5 245C146.207 245 146.886 245.281 147.386 245.781C147.886 246.281 148.167 246.959 148.167 247.667V250.333" stroke="#0062F2" stroke-linecap="round" stroke-linejoin="round"/>
</g>
<g opacity="0.2" filter="url(#filter1_f_0_1)">
<rect x="236.5" y="180.166" width="223.442" height="142.285" rx="9.53477" transform="rotate(-8.79545 236.5 180.166)" fill="#142641"/>
</g>
<path d="M302.608 324.091L279.269 179.063L403.529 159.066L426.869 304.093L302.608 324.091Z" fill="url(#paint0_linear_0_1)"/>
<path d="M278.5 174.401L302.5 327" stroke="#DFFF00" stroke-width="2.86043"/>
<defs>
<filter id="filter0_d_0_1" x="0.5" y="0" width="263" height="414" filterUnits="userSpaceOnUse" color-interpolation-filters="sRGB">
<feFlood flood-opacity="0" result="BackgroundImageFix"/>
<feColorMatrix in="SourceAlpha" type="matrix" values="0 0 0 0 0 0 0 0 0 0 0 0 0 0 0 0 0 0 127 0" result="hardAlpha"/>
<feOffset dx="1" dy="2"/>
<feGaussianBlur stdDeviation="3"/>
<feColorMatrix type="matrix" values="0 0 0 0 0.121569 0 0 0 0 0.160784 0 0 0 0 0.215686 0 0 0 0.15 0"/>
<feBlend mode="normal" in2="BackgroundImageFix" result="effect1_dropShadow_0_1"/>
<feBlend mode="normal" in="SourceGraphic" in2="effect1_dropShadow_0_1" result="shape"/>
</filter>
<filter id="filter1_f_0_1" x="230.217" y="139.717" width="255.138" height="187.344" filterUnits="userSpaceOnUse" color-interpolation-filters="sRGB">
<feFlood flood-opacity="0" result="BackgroundImageFix"/>
<feBlend mode="normal" in="SourceGraphic" in2="BackgroundImageFix" result="shape"/>
<feGaussianBlur stdDeviation="3.81391" result="effect1_foregroundBlur_0_1"/>
</filter>
<linearGradient id="paint0_linear_0_1" x1="272.582" y1="254.531" x2="397.313" y2="234.458" gradientUnits="userSpaceOnUse">
<stop stop-color="#DFFF00"/>
<stop offset="1" stop-color="#DFFF00" stop-opacity="0"/>
</linearGradient>
<clipPath id="clip0_0_1">
<rect width="16" height="16" fill="white" transform="translate(43.5 109.392)"/>
</clipPath>
<clipPath id="clip1_0_1">
<rect width="16" height="16" fill="white" transform="translate(43.5 184.392)"/>
</clipPath>
<clipPath id="clip2_0_1">
<rect width="16" height="16" fill="white" transform="translate(43.5 243.392)"/>
</clipPath>
<clipPath id="clip3_0_1">
<rect width="16" height="16" fill="white" transform="translate(137.5 243)"/>
</clipPath>
</defs>
</svg>
