<svg width="537" height="450" viewBox="0 0 537 450" fill="none" xmlns="http://www.w3.org/2000/svg">
<g clip-path="url(#clip0_1_4366)">
<g opacity="0.2" filter="url(#filter0_f_1_4366)">
<rect x="288.5" y="23.5" width="222.6" height="402" rx="19.901" fill="#142641"/>
</g>
<g clip-path="url(#clip1_1_4366)">
<rect x="289.074" y="23.5" width="222.599" height="402" rx="19.901" fill="#48B2E8"/>
<rect x="289.074" y="23.499" width="222.599" height="53.4239" fill="url(#paint0_linear_1_4366)" fill-opacity="0.2"/>
<rect x="285.093" y="-7.54535" width="230.453" height="499.008" fill="#C4C4C4"/>
<g clip-path="url(#clip2_1_4366)">
<g clip-path="url(#clip3_1_4366)">
<rect width="230.524" height="499.163" transform="translate(284.912 -8.49933)" fill="#48B2E8"/>
<g clip-path="url(#clip4_1_4366)">
<rect width="232.752" height="498.597" transform="translate(283.003 -8.09625)" fill="white"/>
<rect opacity="0.5" x="285.484" y="-7.2675" width="229.443" height="497.494" rx="27.853" stroke="black" stroke-opacity="0.25" stroke-width="0.551545"/>
<g clip-path="url(#clip5_1_4366)">
<rect width="230.759" height="499.669" transform="translate(284.826 -8.09625)"/>
<rect x="284.826" y="-8.09625" width="230.759" height="55.382" fill="url(#paint1_linear_1_4366)"/>
<g clip-path="url(#clip6_1_4366)">
<path fill-rule="evenodd" clip-rule="evenodd" d="M303.031 28.2098L299.986 25.1639C299.745 24.9236 299.745 24.534 299.986 24.2937C300.226 24.0534 300.616 24.0534 300.856 24.2937L303.902 27.3396L306.948 24.2937C307.188 24.0534 307.578 24.0534 307.818 24.2937C308.058 24.534 308.058 24.9236 307.818 25.1639L304.772 28.2098L307.818 31.2557C308.058 31.496 308.058 31.8856 307.818 32.1259C307.578 32.3662 307.188 32.3662 306.948 32.1259L303.902 29.08L300.856 32.1259C300.616 32.3662 300.226 32.3662 299.986 32.1259C299.745 31.8856 299.745 31.496 299.986 31.2557L303.031 28.2098Z" fill="white"/>
<path d="M496.508 21.4409C496.848 21.4409 497.124 21.7164 497.124 22.0562V23.9023C497.124 24.2421 496.848 24.5176 496.508 24.5176C496.168 24.5176 495.893 24.2421 495.893 23.9023V22.0562C495.893 21.7164 496.168 21.4409 496.508 21.4409Z" fill="white"/>
<path fill-rule="evenodd" clip-rule="evenodd" d="M496.508 31.2866C498.207 31.2866 499.585 29.9091 499.585 28.2098C499.585 26.5105 498.207 25.133 496.508 25.133C494.809 25.133 493.431 26.5105 493.431 28.2098C493.431 29.9091 494.809 31.2866 496.508 31.2866ZM496.508 30.0558C497.528 30.0558 498.354 29.2293 498.354 28.2098C498.354 27.1903 497.528 26.3637 496.508 26.3637C495.489 26.3637 494.662 27.1903 494.662 28.2098C494.662 29.2293 495.489 30.0558 496.508 30.0558Z" fill="white"/>
<path d="M497.124 32.5173C497.124 32.1774 496.848 31.9019 496.508 31.9019C496.168 31.9019 495.893 32.1774 495.893 32.5173V34.3633C495.893 34.7032 496.168 34.9787 496.508 34.9787C496.848 34.9787 497.124 34.7032 497.124 34.3633V32.5173Z" fill="white"/>
<path d="M503.277 28.2098C503.277 28.5496 503.002 28.8251 502.662 28.8251H500.816C500.476 28.8251 500.2 28.5496 500.2 28.2098C500.2 27.8699 500.476 27.5944 500.816 27.5944H502.662C503.002 27.5944 503.277 27.8699 503.277 28.2098Z" fill="white"/>
<path d="M492.201 28.8251C492.541 28.8251 492.816 28.5496 492.816 28.2098C492.816 27.8699 492.541 27.5944 492.201 27.5944H490.355C490.015 27.5944 489.739 27.8699 489.739 28.2098C489.739 28.5496 490.015 28.8251 490.355 28.8251H492.201Z" fill="white"/>
<path d="M500.859 32.561C500.619 32.8014 500.229 32.8014 499.989 32.561L499.119 31.6908C498.878 31.4505 498.878 31.0609 499.119 30.8205C499.359 30.5802 499.749 30.5802 499.989 30.8205L500.859 31.6908C501.1 31.9311 501.1 32.3208 500.859 32.561Z" fill="white"/>
<path d="M493.027 25.599C493.267 25.8394 493.657 25.8394 493.897 25.599C494.138 25.3588 494.138 24.9691 493.897 24.7289L493.027 23.8586C492.787 23.6182 492.397 23.6182 492.157 23.8586C491.916 24.0989 491.916 24.4885 492.157 24.7289L493.027 25.599Z" fill="white"/>
<path d="M492.705 32.7309C492.823 32.709 492.936 32.6523 493.027 32.561L493.898 31.6908C494.138 31.4505 494.138 31.0609 493.898 30.8205C493.657 30.5802 493.268 30.5802 493.027 30.8205L492.157 31.6908C491.917 31.9311 491.917 32.3208 492.157 32.561C492.306 32.71 492.513 32.7667 492.705 32.7309Z" fill="white"/>
<path d="M499.437 25.7682C499.321 25.7456 499.209 25.6893 499.119 25.599C498.879 25.3588 498.879 24.9691 499.119 24.7289L499.989 23.8586C500.131 23.7169 500.324 23.6588 500.509 23.6841C500.637 23.7017 500.761 23.7599 500.86 23.8586C501.01 24.0092 501.067 24.2187 501.028 24.4131C501.005 24.5288 500.949 24.6392 500.86 24.7289L499.989 25.599C499.839 25.7491 499.631 25.8054 499.437 25.7682Z" fill="white"/>
</g>
</g>
<g clip-path="url(#clip7_1_4366)">
<g filter="url(#filter1_f_1_4366)">
<rect x="278.587" y="-8.44415" width="238.268" height="515.929"/>
</g>
<rect x="278.336" y="11.4988" width="238.179" height="444.971" fill="black" fill-opacity="0.1"/>
<path d="M325.472 145.916C324.935 142.094 327.593 138.558 331.414 138.012L443.531 121.996C447.374 121.447 450.929 124.129 451.456 127.974L466.652 238.768C467.175 242.585 464.515 246.108 460.701 246.65L348.94 262.515C345.109 263.059 341.563 260.391 341.024 256.559L325.472 145.916Z" fill="url(#paint2_linear_1_4366)"/>
</g>
</g>
<rect x="284.797" y="-8.65161" width="230.524" height="55.326" fill="url(#paint3_linear_1_4366)" fill-opacity="0.55"/>
</g>
</g>
<rect x="360.305" y="418.672" width="80.1357" height="2.96799" rx="1.48399" fill="white"/>
<path d="M302.728 34.3996C304.984 34.3996 306.947 36.0036 306.947 39.8122V39.8268C306.947 43.3864 305.343 45.4958 302.684 45.4958C300.743 45.4958 299.293 44.3459 298.956 42.7272L298.942 42.6467H300.802L300.824 42.7199C301.102 43.4597 301.754 43.9431 302.684 43.9431C304.362 43.9431 305.072 42.3024 305.153 40.2809C305.153 40.2004 305.16 40.1198 305.16 40.0392H305.013C304.625 40.8742 303.702 41.614 302.252 41.614C300.223 41.614 298.803 40.1345 298.803 38.1276V38.113C298.803 35.967 300.436 34.3996 302.728 34.3996ZM302.721 40.1638C303.915 40.1638 304.83 39.2995 304.83 38.1057V38.091C304.83 36.8825 303.915 35.9377 302.743 35.9377C301.578 35.9377 300.648 36.8679 300.648 38.0471V38.0617C300.648 39.2849 301.52 40.1638 302.721 40.1638ZM310.032 38.384C309.366 38.384 308.868 37.8713 308.868 37.2267C308.868 36.5749 309.366 36.0695 310.032 36.0695C310.706 36.0695 311.197 36.5749 311.197 37.2267C311.197 37.8713 310.706 38.384 310.032 38.384ZM310.032 43.8185C309.366 43.8185 308.868 43.3132 308.868 42.6613C308.868 42.0095 309.366 41.5041 310.032 41.5041C310.706 41.5041 311.197 42.0095 311.197 42.6613C311.197 43.3132 310.706 43.8185 310.032 43.8185ZM318.244 45.2321V43.2033H313.073V41.6579C314.443 39.2775 315.945 36.8459 317.38 34.6633H320.053V41.6432H321.474V43.2033H320.053V45.2321H318.244ZM314.831 41.6872H318.274V36.1721H318.164C317.08 37.8273 315.857 39.7829 314.831 41.5773V41.6872ZM325.614 45.2321V36.5236H325.49L322.86 38.384V36.6042L325.622 34.6633H327.504V45.2321H325.614Z" fill="white"/>
<g clip-path="url(#clip8_1_4366)">
<path opacity="0.36" fill-rule="evenodd" clip-rule="evenodd" d="M487.227 33.1079H496.025C496.766 33.1079 497.034 33.1851 497.305 33.3299C497.576 33.4748 497.789 33.6873 497.934 33.9582C498.078 34.229 498.156 34.4977 498.156 35.2386V37.8036C498.156 38.5445 498.078 38.8131 497.934 39.084C497.789 39.3549 497.576 39.5674 497.305 39.7123C497.034 39.8571 496.766 39.9343 496.025 39.9343H487.227C486.486 39.9343 486.218 39.8571 485.947 39.7123C485.676 39.5674 485.463 39.3549 485.318 39.084C485.174 38.8131 485.096 38.5445 485.096 37.8036V35.2386C485.096 34.4977 485.174 34.229 485.318 33.9582C485.463 33.6873 485.676 33.4748 485.947 33.3299C486.218 33.1851 486.486 33.1079 487.227 33.1079ZM487.227 33.7015C486.641 33.7015 486.437 33.741 486.227 33.8533C486.059 33.9429 485.931 34.0707 485.842 34.2381C485.73 34.4482 485.69 34.6527 485.69 35.2386V37.8036C485.69 38.3895 485.73 38.594 485.842 38.8041C485.931 38.9715 486.059 39.0993 486.227 39.1888C486.437 39.3012 486.641 39.3407 487.227 39.3407H496.025C496.611 39.3407 496.815 39.3012 497.025 39.1888C497.193 39.0993 497.321 38.9715 497.41 38.8041C497.523 38.594 497.562 38.3895 497.562 37.8036V35.2386C497.562 34.6527 497.523 34.4482 497.41 34.2381C497.321 34.0707 497.193 33.9429 497.025 33.8533C496.815 33.741 496.611 33.7015 496.025 33.7015H487.227ZM499.64 36.4855C499.64 37.2195 498.749 37.6727 498.749 37.6727V35.2983C498.749 35.2983 499.64 35.7515 499.64 36.4855Z" fill="white"/>
<rect x="486.284" y="34.2457" width="10.6848" height="4.55092" rx="0.949757" fill="white"/>
</g>
<path fill-rule="evenodd" clip-rule="evenodd" d="M468.252 33.9424C468.238 34.0112 468.238 34.094 468.238 34.2595V38.8302C468.238 38.9957 468.238 39.0784 468.252 39.1472C468.308 39.4298 468.529 39.6507 468.812 39.7069C468.88 39.7206 468.963 39.7206 469.129 39.7206C469.294 39.7206 469.377 39.7206 469.446 39.7069C469.728 39.6507 469.949 39.4298 470.005 39.1472C470.019 39.0784 470.019 38.9957 470.019 38.8302V34.2595C470.019 34.094 470.019 34.0112 470.005 33.9424C469.949 33.6599 469.728 33.439 469.446 33.3828C469.377 33.3691 469.294 33.3691 469.129 33.3691C468.963 33.3691 468.88 33.3691 468.812 33.3828C468.529 33.439 468.308 33.6599 468.252 33.9424ZM465.448 35.6841C465.448 35.5186 465.448 35.4359 465.462 35.3671C465.518 35.0845 465.739 34.8636 466.022 34.8074C466.091 34.7937 466.173 34.7937 466.339 34.7937C466.504 34.7937 466.587 34.7937 466.656 34.8074C466.938 34.8636 467.159 35.0845 467.215 35.3671C467.229 35.4359 467.229 35.5186 467.229 35.6841V38.8302C467.229 38.9957 467.229 39.0784 467.215 39.1472C467.159 39.4298 466.938 39.6507 466.656 39.7069C466.587 39.7206 466.504 39.7206 466.339 39.7206C466.173 39.7206 466.091 39.7206 466.022 39.7069C465.739 39.6507 465.518 39.4298 465.462 39.1472C465.448 39.0784 465.448 38.9957 465.448 38.8302V35.6841ZM462.731 36.7323C462.718 36.8012 462.718 36.8839 462.718 37.0494V38.8302C462.718 38.9957 462.718 39.0784 462.731 39.1472C462.788 39.4298 463.009 39.6507 463.291 39.7069C463.36 39.7206 463.443 39.7206 463.608 39.7206C463.774 39.7206 463.856 39.7206 463.925 39.7069C464.208 39.6507 464.429 39.4298 464.485 39.1472C464.499 39.0784 464.499 38.9957 464.499 38.8302V37.0494C464.499 36.8839 464.499 36.8012 464.485 36.7323C464.429 36.4498 464.208 36.2289 463.925 36.1727C463.856 36.159 463.774 36.159 463.608 36.159C463.443 36.159 463.36 36.159 463.291 36.1727C463.009 36.2289 462.788 36.4498 462.731 36.7323ZM459.882 37.9195C459.869 37.9883 459.869 38.0711 459.869 38.2366V38.8302C459.869 38.9957 459.869 39.0784 459.882 39.1472C459.938 39.4298 460.159 39.6507 460.442 39.7069C460.511 39.7206 460.593 39.7206 460.759 39.7206C460.924 39.7206 461.007 39.7206 461.076 39.7069C461.359 39.6507 461.579 39.4298 461.636 39.1472C461.649 39.0784 461.649 38.9957 461.649 38.8302V38.2366C461.649 38.0711 461.649 37.9883 461.636 37.9195C461.579 37.637 461.359 37.4161 461.076 37.3599C461.007 37.3462 460.924 37.3462 460.759 37.3462C460.593 37.3462 460.511 37.3462 460.442 37.3599C460.159 37.4161 459.938 37.637 459.882 37.9195Z" fill="white"/>
<path fill-rule="evenodd" clip-rule="evenodd" d="M477.558 34.6135C478.884 34.6135 480.16 35.1232 481.121 36.0371C481.194 36.1076 481.309 36.1067 481.381 36.0351L482.073 35.3367C482.109 35.3004 482.129 35.2512 482.128 35.1999C482.128 35.1487 482.107 35.0997 482.071 35.0638C479.548 32.6459 475.568 32.6459 473.045 35.0638C473.008 35.0997 472.987 35.1487 472.987 35.1999C472.987 35.2511 473.007 35.3004 473.043 35.3367L473.735 36.0351C473.806 36.1068 473.922 36.1077 473.994 36.0371C474.956 35.1231 476.232 34.6135 477.558 34.6135ZM477.558 36.8854C478.287 36.8854 478.989 37.1562 479.53 37.6454C479.603 37.7148 479.718 37.7133 479.789 37.642L480.48 36.9437C480.517 36.907 480.537 36.8573 480.536 36.8057C480.536 36.7541 480.515 36.7048 480.477 36.6689C478.832 35.1388 476.285 35.1388 474.64 36.6689C474.603 36.7048 474.582 36.7541 474.581 36.8058C474.581 36.8574 474.601 36.9071 474.637 36.9437L475.328 37.642C475.4 37.7133 475.515 37.7148 475.588 37.6454C476.128 37.1566 476.83 36.8857 477.558 36.8854ZM478.886 38.552C478.923 38.5157 478.944 38.4658 478.942 38.414C478.941 38.3622 478.919 38.3132 478.881 38.2785C478.117 37.6327 476.999 37.6327 476.235 38.2785C476.197 38.3132 476.175 38.3622 476.173 38.414C476.172 38.4658 476.193 38.5157 476.23 38.552L477.425 39.7585C477.46 39.7939 477.508 39.8139 477.558 39.8139C477.608 39.8139 477.656 39.7939 477.691 39.7585L478.886 38.552Z" fill="white"/>
<g clip-path="url(#clip9_1_4366)">
<path fill-rule="evenodd" clip-rule="evenodd" d="M306.635 58.6149L303.697 55.6767C303.465 55.4449 303.465 55.0691 303.697 54.8373C303.929 54.6054 304.305 54.6054 304.536 54.8373L307.475 57.7754L310.413 54.8373C310.645 54.6054 311.02 54.6054 311.252 54.8373C311.484 55.0691 311.484 55.4449 311.252 55.6767L308.314 58.6149L311.252 61.553C311.484 61.7849 311.484 62.1607 311.252 62.3925C311.02 62.6243 310.645 62.6243 310.413 62.3925L307.475 59.4544L304.536 62.3925C304.305 62.6243 303.929 62.6243 303.697 62.3925C303.465 62.1607 303.465 61.7849 303.697 61.553L306.635 58.6149Z" fill="white"/>
<path d="M493.672 52.0853C493.999 52.0853 494.265 52.3511 494.265 52.6789V54.4597C494.265 54.7875 493.999 55.0533 493.672 55.0533C493.344 55.0533 493.078 54.7875 493.078 54.4597V52.6789C493.078 52.3511 493.344 52.0853 493.672 52.0853Z" fill="white"/>
<path fill-rule="evenodd" clip-rule="evenodd" d="M493.672 61.5829C495.311 61.5829 496.64 60.2541 496.64 58.6149C496.64 56.9757 495.311 55.6469 493.672 55.6469C492.032 55.6469 490.704 56.9757 490.704 58.6149C490.704 60.2541 492.032 61.5829 493.672 61.5829ZM493.672 60.3957C494.655 60.3957 495.452 59.5983 495.452 58.6149C495.452 57.6315 494.655 56.8341 493.672 56.8341C492.688 56.8341 491.891 57.6315 491.891 58.6149C491.891 59.5983 492.688 60.3957 493.672 60.3957Z" fill="white"/>
<path d="M494.265 62.7701C494.265 62.4423 493.999 62.1765 493.672 62.1765C493.344 62.1765 493.078 62.4423 493.078 62.7701V64.5509C493.078 64.8787 493.344 65.1445 493.672 65.1445C493.999 65.1445 494.265 64.8787 494.265 64.5509V62.7701Z" fill="white"/>
<path d="M500.201 58.6149C500.201 58.9427 499.935 59.2085 499.608 59.2085H497.827C497.499 59.2085 497.233 58.9427 497.233 58.6149C497.233 58.2871 497.499 58.0213 497.827 58.0213H499.608C499.935 58.0213 500.201 58.2871 500.201 58.6149Z" fill="white"/>
<path d="M489.516 59.2085C489.844 59.2085 490.11 58.9427 490.11 58.6149C490.11 58.2871 489.844 58.0213 489.516 58.0213H487.736C487.408 58.0213 487.142 58.2871 487.142 58.6149C487.142 58.9427 487.408 59.2085 487.736 59.2085H489.516Z" fill="white"/>
<path d="M497.869 62.8123C497.637 63.0441 497.261 63.0441 497.029 62.8123L496.19 61.9729C495.958 61.741 495.958 61.3652 496.19 61.1333C496.422 60.9015 496.797 60.9015 497.029 61.1333L497.869 61.9729C498.101 62.2046 498.101 62.5805 497.869 62.8123Z" fill="white"/>
<path d="M490.314 56.0965C490.545 56.3283 490.921 56.3283 491.153 56.0965C491.385 55.8647 491.385 55.4888 491.153 55.2571L490.314 54.4175C490.082 54.1857 489.706 54.1857 489.474 54.4175C489.242 54.6494 489.242 55.0252 489.474 55.2571L490.314 56.0965Z" fill="white"/>
<path d="M490.003 62.9762C490.117 62.955 490.226 62.9004 490.314 62.8123L491.153 61.9729C491.385 61.741 491.385 61.3652 491.153 61.1333C490.922 60.9015 490.546 60.9015 490.314 61.1333L489.474 61.9729C489.242 62.2046 489.242 62.5805 489.474 62.8123C489.618 62.956 489.817 63.0107 490.003 62.9762Z" fill="white"/>
<path d="M496.497 56.2596C496.385 56.2379 496.277 56.1836 496.19 56.0965C495.958 55.8647 495.958 55.4888 496.19 55.2571L497.029 54.4175C497.166 54.2809 497.353 54.2248 497.531 54.2493C497.655 54.2662 497.774 54.3223 497.869 54.4175C498.015 54.5629 498.069 54.7649 498.032 54.9525C498.01 55.064 497.955 55.1706 497.869 55.2571L497.029 56.0965C496.885 56.2412 496.684 56.2956 496.497 56.2596Z" fill="white"/>
</g>
</g>
<rect x="289.371" y="23.7968" width="222.005" height="401.406" rx="19.6042" stroke="#FCFBFA" stroke-width="0.593598"/>
<path d="M381.818 352.428C382.903 352.428 383.617 351.692 383.617 350.644C383.617 349.581 382.911 348.868 381.818 348.868H379.67V354.302H380.621V352.428H381.818ZM381.632 349.715C382.264 349.715 382.621 350.042 382.621 350.637C382.621 351.232 382.271 351.581 381.617 351.581H380.621V349.715H381.632Z" fill="white"/>
<path d="M384.035 352.458C384.035 353.603 384.86 354.391 385.998 354.391C387.135 354.391 387.96 353.603 387.96 352.458C387.96 351.313 387.135 350.525 385.998 350.525C384.86 350.525 384.035 351.313 384.035 352.458ZM384.942 352.458C384.942 351.789 385.373 351.336 385.998 351.336C386.622 351.336 387.053 351.789 387.053 352.458C387.053 353.127 386.622 353.581 385.998 353.581C385.373 353.581 384.942 353.127 384.942 352.458Z" fill="white"/>
<path d="M389.457 354.302H390.341L390.847 352.726C391.033 352.124 391.1 351.863 391.137 351.692C391.167 351.878 391.248 352.228 391.397 352.711L391.903 354.302H392.75L394.021 350.629H393.062L392.572 352.205C392.505 352.436 392.386 352.875 392.326 353.15C392.282 352.904 392.133 352.354 392.088 352.205L391.598 350.629H390.676L390.17 352.205C390.051 352.57 389.985 352.8 389.918 353.157C389.851 352.815 389.776 352.495 389.695 352.205L389.211 350.629H388.267L389.457 354.302Z" fill="white"/>
<path d="M396.181 354.398C397.14 354.398 397.809 353.915 397.965 353.112H397.125C397.021 353.462 396.693 353.655 396.195 353.655C395.593 353.655 395.251 353.328 395.184 352.681L397.95 352.674V352.399C397.95 351.254 397.251 350.518 396.151 350.518C395.073 350.518 394.322 351.313 394.322 352.466C394.322 353.603 395.088 354.398 396.181 354.398ZM396.158 351.261C396.701 351.261 397.05 351.596 397.05 352.101H395.207C395.296 351.551 395.623 351.261 396.158 351.261Z" fill="white"/>
<path d="M401.129 350.615C400.98 350.577 400.854 350.563 400.727 350.563C400.237 350.563 399.887 350.808 399.731 351.172L399.679 350.637H398.824V354.302H399.731V352.518C399.731 351.804 400.14 351.455 400.794 351.455H401.129V350.615Z" fill="white"/>
<path d="M403.411 354.398C404.37 354.398 405.039 353.915 405.195 353.112H404.355C404.251 353.462 403.924 353.655 403.426 353.655C402.824 353.655 402.482 353.328 402.415 352.681L405.18 352.674V352.399C405.18 351.254 404.481 350.518 403.381 350.518C402.303 350.518 401.552 351.313 401.552 352.466C401.552 353.603 402.318 354.398 403.411 354.398ZM403.389 351.261C403.931 351.261 404.281 351.596 404.281 352.101H402.437C402.526 351.551 402.853 351.261 403.389 351.261Z" fill="white"/>
<path d="M407.564 354.398C408.121 354.398 408.597 354.153 408.82 353.729L408.88 354.302H409.712V348.771H408.813V351.098C408.582 350.734 408.129 350.518 407.616 350.518C406.508 350.518 405.839 351.336 405.839 352.481C405.839 353.618 406.501 354.398 407.564 354.398ZM407.765 353.566C407.133 353.566 406.746 353.105 406.746 352.451C406.746 351.797 407.133 351.328 407.765 351.328C408.397 351.328 408.805 351.789 408.805 352.451C408.805 353.112 408.397 353.566 407.765 353.566Z" fill="white"/>
<path d="M413.799 354.302L413.858 353.729C414.074 354.153 414.542 354.398 415.092 354.398C416.148 354.398 416.839 353.618 416.839 352.488C416.839 351.328 416.2 350.51 415.152 350.51C414.594 350.51 414.103 350.756 413.865 351.165V348.771H412.959V354.302H413.799ZM413.873 352.451C413.873 351.789 414.282 351.328 414.906 351.328C415.546 351.328 415.925 351.797 415.925 352.451C415.925 353.105 415.546 353.566 414.906 353.566C414.282 353.566 413.873 353.112 413.873 352.451Z" fill="white"/>
<path d="M417.252 356.004C417.453 356.056 417.676 356.086 417.929 356.086C418.531 356.086 418.918 355.803 419.193 355.12L420.992 350.629H420.055L419.059 353.306L418.115 350.629H417.156L418.635 354.458L418.531 354.733C418.375 355.164 418.152 355.246 417.795 355.246H417.252V356.004Z" fill="white"/>
<g clip-path="url(#clip10_1_4366)">
<path d="M369.204 365.664L366.816 359.525H365.226V367.515H366.311V361.231L368.786 367.549H369.577L372.074 361.175V367.515H373.193V359.525H371.592L369.204 365.664Z" fill="white"/>
<path d="M376.503 359.525H375.329V367.515H376.503V359.525Z" fill="white"/>
<path d="M392.205 363.513C392.525 363.064 392.696 362.523 392.692 361.968C392.692 361.314 392.411 360.704 391.901 360.25C391.375 359.783 390.643 359.526 389.839 359.526H386.597V367.516H387.771V364.659H389.673L391.333 367.515H392.726L390.951 364.462C391.452 364.278 391.888 363.948 392.205 363.513ZM391.496 361.979C391.498 362.189 391.46 362.397 391.382 362.591C391.304 362.786 391.188 362.962 391.042 363.11C390.743 363.409 390.324 363.574 389.861 363.574H387.77V360.622H389.861C390.793 360.622 391.496 361.205 391.496 361.979Z" fill="white"/>
<path d="M397.671 359.39C396.569 359.39 395.575 359.823 394.869 360.61C394.19 361.368 393.815 362.402 393.815 363.52C393.815 364.638 394.19 365.677 394.869 366.435C395.573 367.218 396.568 367.649 397.671 367.649C398.779 367.649 399.778 367.217 400.483 366.435C401.163 365.678 401.538 364.643 401.538 363.52C401.538 362.396 401.163 361.367 400.483 360.61C399.776 359.822 398.778 359.39 397.671 359.39ZM397.671 366.53C397.309 366.532 396.952 366.454 396.622 366.301C396.293 366.149 396 365.926 395.763 365.648C395.279 365.089 395.012 364.333 395.012 363.52C395.012 362.707 395.279 361.957 395.763 361.396C396.257 360.824 396.934 360.509 397.671 360.509C398.408 360.509 399.088 360.824 399.585 361.396C400.073 361.959 400.341 362.712 400.341 363.52C400.341 364.328 400.073 365.088 399.585 365.648C399.347 365.926 399.052 366.149 398.722 366.301C398.392 366.454 398.034 366.532 397.671 366.53Z" fill="white"/>
<path d="M407.974 363.324C408.659 362.939 409.066 362.264 409.066 361.507C409.066 360.34 408.047 359.525 406.592 359.525H403.148V367.515H406.758C408.192 367.515 409.232 366.544 409.232 365.207C409.233 364.404 408.752 363.688 407.974 363.324ZM406.792 366.418H404.322V363.939H406.624C407.468 363.939 408.036 364.399 408.036 365.083C408.037 365.894 407.548 366.418 406.792 366.418ZM406.491 362.864H404.322V360.622H406.624C407.381 360.622 407.869 361.023 407.869 361.642C407.87 362.251 407.443 362.865 406.491 362.865V362.864Z" fill="white"/>
<path d="M412.098 359.525H410.923V367.515H416.062V366.396H412.098V359.525Z" fill="white"/>
<path d="M418.547 359.525H417.372V367.515H418.547V359.525Z" fill="white"/>
<path d="M425.924 365.436L421.831 359.55L421.814 359.525H420.679V367.515H421.786V361.311L426.097 367.515H427.031V359.525H425.924V365.436Z" fill="white"/>
<path d="M432.278 363.04L435.352 359.525H433.915L430.336 363.612V359.525H429.161V367.515H430.336V365.196L431.475 363.907L434.012 367.515H435.436L432.278 363.04Z" fill="white"/>
<path d="M384.152 364.812C383.628 366.024 382.956 366.542 381.9 366.542C381.178 366.542 380.517 366.228 380.039 365.659C379.567 365.098 379.308 364.338 379.308 363.52C379.308 362.707 379.562 361.953 380.022 361.395C380.494 360.824 381.149 360.509 381.867 360.509C382.84 360.509 383.551 361.002 384.042 362.017L384.063 362.06H385.291L385.286 362.025C385.256 361.857 385.196 361.699 385.137 361.545L385.119 361.495C384.867 360.859 384.428 360.319 383.861 359.949C383.295 359.578 382.613 359.39 381.833 359.39C380.768 359.39 379.807 359.823 379.126 360.611C378.472 361.368 378.111 362.402 378.111 363.52C378.111 364.653 378.474 365.691 379.132 366.442C379.825 367.232 380.774 367.65 381.878 367.65C382.651 367.65 383.33 367.446 383.897 367.045C383.992 366.977 384.084 366.905 384.172 366.827C384.746 366.318 385.182 365.595 385.336 364.891L385.34 364.873C385.345 364.849 385.35 364.824 385.354 364.8L385.36 364.765H384.171L384.152 364.812Z" fill="white"/>
</g>
<path d="M330.413 104.764C327.96 104.764 326.4 103.555 326.268 101.731L326.261 101.629H328.092L328.099 101.702C328.187 102.588 329.132 103.174 330.472 103.174C331.746 103.174 332.64 102.544 332.64 101.636V101.629C332.64 100.867 332.091 100.406 330.728 100.113L329.593 99.8784C327.433 99.4243 326.495 98.4136 326.495 96.8389V96.8315C326.495 94.9419 328.121 93.6675 330.406 93.6675C332.75 93.6675 334.207 94.9492 334.339 96.6484L334.347 96.7437H332.537L332.523 96.6558C332.391 95.8354 331.607 95.2495 330.399 95.2568C329.227 95.2568 328.392 95.8062 328.392 96.707V96.7144C328.392 97.4614 328.927 97.9302 330.245 98.2085L331.38 98.4502C333.607 98.9189 334.537 99.8125 334.537 101.409V101.417C334.537 103.475 332.948 104.764 330.413 104.764ZM339.406 104.661C336.996 104.661 335.575 103.101 335.575 100.486V100.472C335.575 97.8862 336.989 96.3408 339.398 96.3408C341.456 96.3408 342.687 97.4834 342.892 99.1387V99.168H341.171L341.163 99.146C340.995 98.3696 340.402 97.813 339.406 97.813C338.161 97.813 337.428 98.7944 337.428 100.472V100.486C337.428 102.186 338.168 103.182 339.406 103.182C340.35 103.182 340.929 102.75 341.156 101.907L341.171 101.878L342.892 101.871L342.877 101.929C342.614 103.57 341.434 104.661 339.406 104.661ZM346.31 104.632C344.787 104.632 343.681 103.694 343.681 102.237V102.222C343.681 100.794 344.772 99.959 346.721 99.8418L348.779 99.7173V99.0288C348.779 98.2305 348.259 97.791 347.277 97.791C346.442 97.791 345.9 98.0913 345.717 98.6187L345.71 98.6479H343.989L343.996 98.582C344.172 97.2344 345.461 96.3408 347.365 96.3408C349.423 96.3408 350.58 97.3369 350.58 99.0288V104.5H348.779V103.401H348.654C348.215 104.178 347.365 104.632 346.31 104.632ZM345.483 102.149C345.483 102.83 346.061 103.233 346.867 103.233C347.966 103.233 348.779 102.515 348.779 101.563V100.918L346.977 101.036C345.959 101.102 345.483 101.475 345.483 102.134V102.149ZM352.27 104.5V96.4946H354.094V97.7178H354.219C354.599 96.8608 355.369 96.3408 356.526 96.3408C358.313 96.3408 359.287 97.4175 359.287 99.3218V104.5H357.463V99.7466C357.463 98.5015 356.958 97.8716 355.852 97.8716C354.768 97.8716 354.094 98.6333 354.094 99.8345V104.5H352.27ZM367.589 104.537C365.75 104.537 364.996 103.921 364.996 102.376V97.9082H363.751V96.4946H364.996V94.5317H366.849V96.4946H368.541V97.9082H366.849V101.944C366.849 102.742 367.164 103.079 367.926 103.079C368.182 103.079 368.321 103.072 368.541 103.05V104.456C368.277 104.507 367.94 104.537 367.589 104.537ZM369.931 104.5V93.3965H371.754V97.7178H371.879C372.26 96.8608 373.029 96.3408 374.186 96.3408C375.973 96.3408 376.947 97.4175 376.947 99.3218V104.5H375.123V99.7466C375.123 98.5015 374.618 97.8716 373.512 97.8716C372.428 97.8716 371.754 98.6333 371.754 99.8345V104.5H369.931ZM382.028 104.661C379.648 104.661 378.205 103.064 378.205 100.516V100.508C378.205 97.9888 379.662 96.3408 381.94 96.3408C384.218 96.3408 385.624 97.9375 385.624 100.354V100.955H380.029C380.051 102.391 380.827 103.226 382.065 103.226C383.054 103.226 383.618 102.728 383.793 102.361L383.815 102.31H385.551L385.529 102.376C385.273 103.409 384.203 104.661 382.028 104.661ZM381.962 97.769C380.944 97.769 380.183 98.4575 380.043 99.7319H383.845C383.72 98.4209 382.98 97.769 381.962 97.769ZM393.882 104.661C391.473 104.661 390.052 103.101 390.052 100.486V100.472C390.052 97.8862 391.465 96.3408 393.875 96.3408C395.933 96.3408 397.163 97.4834 397.369 99.1387V99.168H395.647L395.64 99.146C395.472 98.3696 394.878 97.813 393.882 97.813C392.637 97.813 391.905 98.7944 391.905 100.472V100.486C391.905 102.186 392.644 103.182 393.882 103.182C394.827 103.182 395.406 102.75 395.633 101.907L395.647 101.878L397.369 101.871L397.354 101.929C397.09 103.57 395.911 104.661 393.882 104.661ZM400.787 104.632C399.264 104.632 398.158 103.694 398.158 102.237V102.222C398.158 100.794 399.249 99.959 401.197 99.8418L403.255 99.7173V99.0288C403.255 98.2305 402.735 97.791 401.754 97.791C400.919 97.791 400.377 98.0913 400.194 98.6187L400.186 98.6479H398.465L398.473 98.582C398.648 97.2344 399.937 96.3408 401.842 96.3408C403.9 96.3408 405.057 97.3369 405.057 99.0288V104.5H403.255V103.401H403.131C402.691 104.178 401.842 104.632 400.787 104.632ZM399.959 102.149C399.959 102.83 400.538 103.233 401.344 103.233C402.442 103.233 403.255 102.515 403.255 101.563V100.918L401.453 101.036C400.435 101.102 399.959 101.475 399.959 102.134V102.149ZM406.747 104.5V96.4946H408.571V97.7251H408.695C408.966 96.8682 409.699 96.3628 410.753 96.3628C411.032 96.3628 411.317 96.3994 411.493 96.4507V98.084C411.2 98.0254 410.9 97.9814 410.585 97.9814C409.369 97.9814 408.571 98.7065 408.571 99.8491V104.5H406.747ZM415.168 104.632C413.161 104.632 411.887 103.042 411.887 100.508V100.494C411.887 97.9448 413.139 96.3628 415.168 96.3628C416.266 96.3628 417.182 96.9048 417.599 97.769H417.724V93.3965H419.555V104.5H417.724V103.248H417.599C417.16 104.119 416.296 104.632 415.168 104.632ZM415.739 103.094C416.984 103.094 417.753 102.112 417.753 100.508V100.494C417.753 98.8896 416.977 97.9009 415.739 97.9009C414.501 97.9009 413.74 98.8823 413.74 100.494V100.508C413.74 102.12 414.494 103.094 415.739 103.094ZM424.847 104.5V96.4946H426.67V97.7178H426.795C427.176 96.8608 427.945 96.3408 429.102 96.3408C430.889 96.3408 431.863 97.4175 431.863 99.3218V104.5H430.039V99.7466C430.039 98.5015 429.534 97.8716 428.428 97.8716C427.344 97.8716 426.67 98.6333 426.67 99.8345V104.5H424.847ZM436.168 104.661C434.366 104.661 433.443 103.577 433.443 101.673V96.4946H435.267V101.255C435.267 102.493 435.728 103.123 436.827 103.123C438.006 103.123 438.636 102.361 438.636 101.16V96.4946H440.46V104.5H438.636V103.284H438.512C438.138 104.141 437.325 104.661 436.168 104.661ZM442.186 104.5V96.4946H444.01V97.7397H444.135C444.479 96.8462 445.285 96.3408 446.332 96.3408C447.416 96.3408 448.207 96.8975 448.551 97.7837H448.676C449.064 96.9121 449.987 96.3408 451.1 96.3408C452.711 96.3408 453.678 97.3296 453.678 98.9922V104.5H451.854V99.439C451.854 98.3989 451.378 97.8716 450.404 97.8716C449.452 97.8716 448.837 98.582 448.837 99.4976V104.5H447.013V99.3071C447.013 98.4209 446.464 97.8716 445.57 97.8716C444.669 97.8716 444.01 98.6333 444.01 99.6294V104.5H442.186ZM459.792 104.632C458.671 104.632 457.8 104.119 457.36 103.248H457.236V104.5H455.412V93.3965H457.236V97.769H457.36C457.778 96.9048 458.693 96.3628 459.792 96.3628C461.821 96.3628 463.08 97.9448 463.08 100.494V100.508C463.08 103.042 461.799 104.632 459.792 104.632ZM459.221 103.094C460.466 103.094 461.22 102.12 461.22 100.508V100.494C461.22 98.8823 460.466 97.9009 459.221 97.9009C457.983 97.9009 457.214 98.8896 457.214 100.494V100.508C457.214 102.112 457.983 103.094 459.221 103.094ZM467.832 104.661C465.452 104.661 464.009 103.064 464.009 100.516V100.508C464.009 97.9888 465.466 96.3408 467.744 96.3408C470.022 96.3408 471.428 97.9375 471.428 100.354V100.955H465.832C465.854 102.391 466.631 103.226 467.869 103.226C468.857 103.226 469.421 102.728 469.597 102.361L469.619 102.31H471.355L471.333 102.376C471.077 103.409 470.007 104.661 467.832 104.661ZM467.766 97.769C466.748 97.769 465.986 98.4575 465.847 99.7319H469.648C469.524 98.4209 468.784 97.769 467.766 97.769ZM472.752 104.5V96.4946H474.576V97.7251H474.7C474.971 96.8682 475.703 96.3628 476.758 96.3628C477.036 96.3628 477.322 96.3994 477.498 96.4507V98.084C477.205 98.0254 476.905 97.9814 476.59 97.9814C475.374 97.9814 474.576 98.7065 474.576 99.8491V104.5H472.752Z" fill="white"/>
<g opacity="0.7">
<path d="M36.043 242.313C36.043 238.417 39.2012 235.259 43.097 235.259H240.609C244.505 235.259 247.663 238.417 247.663 242.313V359.024C247.663 362.92 244.505 366.078 240.609 366.078H43.097C39.2012 366.078 36.043 362.92 36.043 359.024V242.313Z"/>
<path d="M36.043 242.313C36.043 238.417 39.2012 235.259 43.097 235.259H240.609C244.505 235.259 247.663 238.417 247.663 242.313V359.024C247.663 362.92 244.505 366.078 240.609 366.078H43.097C39.2012 366.078 36.043 362.92 36.043 359.024V242.313Z"/>
<path d="M36.043 242.313C36.043 238.417 39.2012 235.259 43.097 235.259H240.609C244.505 235.259 247.663 238.417 247.663 242.313V359.024C247.663 362.92 244.505 366.078 240.609 366.078H43.097C39.2012 366.078 36.043 362.92 36.043 359.024V242.313Z"/>
</g>
</g>
<defs>
<filter id="filter0_f_1_4366" x="280.54" y="15.5396" width="238.521" height="417.921" filterUnits="userSpaceOnUse" color-interpolation-filters="sRGB">
<feFlood flood-opacity="0" result="BackgroundImageFix"/>
<feBlend mode="normal" in="SourceGraphic" in2="BackgroundImageFix" result="shape"/>
<feGaussianBlur stdDeviation="3.98019" result="effect1_foregroundBlur_1_4366"/>
</filter>
<filter id="filter1_f_1_4366" x="262.893" y="-24.1382" width="269.656" height="547.317" filterUnits="userSpaceOnUse" color-interpolation-filters="sRGB">
<feFlood flood-opacity="0" result="BackgroundImageFix"/>
<feBlend mode="normal" in="SourceGraphic" in2="BackgroundImageFix" result="shape"/>
<feGaussianBlur stdDeviation="7.847" result="effect1_foregroundBlur_1_4366"/>
</filter>
<linearGradient id="paint0_linear_1_4366" x1="400.374" y1="23.499" x2="400.374" y2="76.9228" gradientUnits="userSpaceOnUse">
<stop/>
<stop offset="1" stop-opacity="0"/>
</linearGradient>
<linearGradient id="paint1_linear_1_4366" x1="400.205" y1="-8.09625" x2="400.205" y2="47.2858" gradientUnits="userSpaceOnUse">
<stop/>
<stop offset="1" stop-opacity="0"/>
</linearGradient>
<linearGradient id="paint2_linear_1_4366" x1="384.577" y1="111.689" x2="402.355" y2="236.667" gradientUnits="userSpaceOnUse">
<stop stop-color="#DFFF00"/>
<stop offset="1" stop-color="#DFFF00" stop-opacity="0"/>
</linearGradient>
<linearGradient id="paint3_linear_1_4366" x1="400.06" y1="-8.65161" x2="400.06" y2="46.6744" gradientUnits="userSpaceOnUse">
<stop/>
<stop offset="1" stop-opacity="0"/>
</linearGradient>
<clipPath id="clip0_1_4366">
<rect width="536" height="449" fill="white" transform="translate(0.5 0.5)"/>
</clipPath>
<clipPath id="clip1_1_4366">
<rect x="289.074" y="23.5" width="222.599" height="402" rx="19.901" fill="white"/>
</clipPath>
<clipPath id="clip2_1_4366">
<rect width="231.113" height="500.555" fill="white" transform="translate(284.913 -8.49854)"/>
</clipPath>
<clipPath id="clip3_1_4366">
<rect width="230.524" height="499.163" fill="white" transform="translate(284.912 -8.49933)"/>
</clipPath>
<clipPath id="clip4_1_4366">
<rect width="232.752" height="498.597" fill="white" transform="translate(283.003 -8.09625)"/>
</clipPath>
<clipPath id="clip5_1_4366">
<rect width="230.759" height="499.669" fill="white" transform="translate(284.826 -8.09625)"/>
</clipPath>
<clipPath id="clip6_1_4366">
<rect width="230.759" height="18.4607" fill="white" transform="translate(284.826 18.9794)"/>
</clipPath>
<clipPath id="clip7_1_4366">
<rect width="238.267" height="515.929" fill="white" transform="translate(278.587 -8.44415)"/>
</clipPath>
<clipPath id="clip8_1_4366">
<rect width="14.5431" height="6.82638" fill="white" transform="translate(485.096 33.1079)"/>
</clipPath>
<clipPath id="clip9_1_4366">
<rect width="222.599" height="17.8079" fill="white" transform="translate(289.073 49.6149)"/>
</clipPath>
<clipPath id="clip10_1_4366">
<rect width="70.21" height="8.26" fill="white" transform="translate(365.226 359.39)"/>
</clipPath>
</defs>
</svg>
