<svg width="18" height="18" viewBox="0 0 18 18" fill="none" xmlns="http://www.w3.org/2000/svg">
<path fill-rule="evenodd" clip-rule="evenodd" d="M7.33335 0.666748C3.65146 0.666748 0.666687 3.65152 0.666687 7.33342C0.666687 11.0153 3.65146 14.0001 7.33335 14.0001C8.87395 14.0001 10.2925 13.4775 11.4214 12.6L15.9108 17.0893C16.2362 17.4148 16.7638 17.4148 17.0893 17.0893C17.4147 16.7639 17.4147 16.2363 17.0893 15.9108L12.5999 11.4215C13.4775 10.2925 14 8.87401 14 7.33342C14 3.65152 11.0153 0.666748 7.33335 0.666748ZM2.33335 7.33342C2.33335 4.57199 4.57193 2.33341 7.33335 2.33341C10.0948 2.33341 12.3334 4.57199 12.3334 7.33342C12.3334 10.0948 10.0948 12.3334 7.33335 12.3334C4.57193 12.3334 2.33335 10.0948 2.33335 7.33342Z" fill="#DFFF00"/>
</svg>
