<svg width="20" height="20" viewBox="0 0 20 20" fill="none" xmlns="http://www.w3.org/2000/svg">
<path d="M14.1149 3.13783C14.5883 3.42237 15.2026 3.2693 15.4872 2.79595C15.7717 2.3226 15.6186 1.70821 15.1453 1.42368L14.1149 3.13783ZM19.6235 7.2733C19.4732 6.74186 18.9205 6.43289 18.3891 6.5832C17.8576 6.73351 17.5487 7.28618 17.699 7.81761L19.6235 7.2733ZM7.43356 9.29272C7.04303 8.9022 6.40987 8.9022 6.01934 9.29272C5.62882 9.68325 5.62882 10.3164 6.01934 10.7069L7.43356 9.29272ZM9.18099 12.4544L8.47389 13.1615C8.86441 13.552 9.49758 13.552 9.8881 13.1615L9.18099 12.4544ZM19.7063 3.3433C20.0968 2.95278 20.0968 2.31961 19.7063 1.92909C19.3158 1.53856 18.6826 1.53856 18.2921 1.92909L19.7063 3.3433ZM18 10C18 14.4183 14.4183 18 10 18V20C15.5228 20 20 15.5228 20 10H18ZM10 18C5.58172 18 2 14.4183 2 10H0C0 15.5228 4.47715 20 10 20V18ZM2 10C2 5.58172 5.58172 2 10 2V0C4.47715 0 0 4.47715 0 10H2ZM10 2C11.5067 2 12.9134 2.41559 14.1149 3.13783L15.1453 1.42368C13.6413 0.519643 11.8798 0 10 0V2ZM17.699 7.81761C17.8949 8.5102 18 9.242 18 10H20C20 9.05615 19.869 8.14125 19.6235 7.2733L17.699 7.81761ZM6.01934 10.7069L8.47389 13.1615L9.8881 11.7473L7.43356 9.29272L6.01934 10.7069ZM9.8881 13.1615L19.7063 3.3433L18.2921 1.92909L8.47389 11.7473L9.8881 13.1615Z" fill="#DFFF00"/>
</svg>
